%TF.GenerationSoftware,KiCad,Pcbnew,9.0.6*%
%TF.CreationDate,2026-02-08T19:37:56+05:30*%
%TF.ProjectId,stm32,73746d33-322e-46b6-9963-61645f706362,rev?*%
%TF.SameCoordinates,Original*%
%TF.FileFunction,Soldermask,Top*%
%TF.FilePolarity,Negative*%
%FSLAX46Y46*%
G04 Gerber Fmt 4.6, Leading zero omitted, Abs format (unit mm)*
G04 Created by KiCad (PCBNEW 9.0.6) date 2026-02-08 19:37:56*
%MOMM*%
%LPD*%
G01*
G04 APERTURE LIST*
G04 Aperture macros list*
%AMRoundRect*
0 Rectangle with rounded corners*
0 $1 Rounding radius*
0 $2 $3 $4 $5 $6 $7 $8 $9 X,Y pos of 4 corners*
0 Add a 4 corners polygon primitive as box body*
4,1,4,$2,$3,$4,$5,$6,$7,$8,$9,$2,$3,0*
0 Add four circle primitives for the rounded corners*
1,1,$1+$1,$2,$3*
1,1,$1+$1,$4,$5*
1,1,$1+$1,$6,$7*
1,1,$1+$1,$8,$9*
0 Add four rect primitives between the rounded corners*
20,1,$1+$1,$2,$3,$4,$5,0*
20,1,$1+$1,$4,$5,$6,$7,0*
20,1,$1+$1,$6,$7,$8,$9,0*
20,1,$1+$1,$8,$9,$2,$3,0*%
G04 Aperture macros list end*
%ADD10C,2.200000*%
%ADD11O,0.800000X0.800000*%
%ADD12R,1.300000X0.450000*%
%ADD13O,1.800000X1.150000*%
%ADD14O,2.000000X1.450000*%
%ADD15RoundRect,0.140000X-0.140000X-0.170000X0.140000X-0.170000X0.140000X0.170000X-0.140000X0.170000X0*%
%ADD16RoundRect,0.218750X0.256250X-0.218750X0.256250X0.218750X-0.256250X0.218750X-0.256250X-0.218750X0*%
%ADD17RoundRect,0.135000X-0.135000X-0.185000X0.135000X-0.185000X0.135000X0.185000X-0.135000X0.185000X0*%
%ADD18RoundRect,0.140000X-0.170000X0.140000X-0.170000X-0.140000X0.170000X-0.140000X0.170000X0.140000X0*%
%ADD19R,0.800000X1.000000*%
%ADD20C,0.900000*%
%ADD21R,1.500000X0.700000*%
%ADD22RoundRect,0.135000X-0.185000X0.135000X-0.185000X-0.135000X0.185000X-0.135000X0.185000X0.135000X0*%
%ADD23RoundRect,0.140000X0.170000X-0.140000X0.170000X0.140000X-0.170000X0.140000X-0.170000X-0.140000X0*%
%ADD24RoundRect,0.250000X-0.250000X-0.475000X0.250000X-0.475000X0.250000X0.475000X-0.250000X0.475000X0*%
%ADD25RoundRect,0.135000X0.185000X-0.135000X0.185000X0.135000X-0.185000X0.135000X-0.185000X-0.135000X0*%
%ADD26RoundRect,0.140000X0.140000X0.170000X-0.140000X0.170000X-0.140000X-0.170000X0.140000X-0.170000X0*%
%ADD27RoundRect,0.250000X-0.350000X0.450000X-0.350000X-0.450000X0.350000X-0.450000X0.350000X0.450000X0*%
%ADD28RoundRect,0.218750X-0.256250X0.218750X-0.256250X-0.218750X0.256250X-0.218750X0.256250X0.218750X0*%
%ADD29RoundRect,0.375000X0.625000X0.375000X-0.625000X0.375000X-0.625000X-0.375000X0.625000X-0.375000X0*%
%ADD30RoundRect,0.500000X0.500000X1.400000X-0.500000X1.400000X-0.500000X-1.400000X0.500000X-1.400000X0*%
%ADD31RoundRect,0.075000X-0.662500X-0.075000X0.662500X-0.075000X0.662500X0.075000X-0.662500X0.075000X0*%
%ADD32RoundRect,0.075000X-0.075000X-0.662500X0.075000X-0.662500X0.075000X0.662500X-0.075000X0.662500X0*%
%ADD33RoundRect,0.150000X-0.825000X-0.150000X0.825000X-0.150000X0.825000X0.150000X-0.825000X0.150000X0*%
%ADD34R,1.700000X1.700000*%
%ADD35C,1.700000*%
%ADD36RoundRect,0.150000X-0.150000X0.587500X-0.150000X-0.587500X0.150000X-0.587500X0.150000X0.587500X0*%
%ADD37RoundRect,0.250000X0.250000X0.475000X-0.250000X0.475000X-0.250000X-0.475000X0.250000X-0.475000X0*%
%ADD38RoundRect,0.225000X-0.225000X-0.250000X0.225000X-0.250000X0.225000X0.250000X-0.225000X0.250000X0*%
G04 APERTURE END LIST*
D10*
%TO.C,H3*%
X131500000Y-94000000D03*
%TD*%
D11*
%TO.C,J4*%
X129700000Y-72500000D03*
X129700000Y-67500000D03*
D12*
X128600000Y-71300000D03*
X128600000Y-70650000D03*
X128600000Y-70000000D03*
X128600000Y-69350000D03*
X128600000Y-68700000D03*
D13*
X132450000Y-73875000D03*
D14*
X128650000Y-73725000D03*
X128650000Y-66275000D03*
D13*
X132450000Y-66125000D03*
%TD*%
D15*
%TO.C,C12*%
X108020000Y-67500000D03*
X108980000Y-67500000D03*
%TD*%
D16*
%TO.C,FB1*%
X106250000Y-79287500D03*
X106250000Y-77712500D03*
%TD*%
D17*
%TO.C,R4*%
X114490000Y-88750000D03*
X115510000Y-88750000D03*
%TD*%
D18*
%TO.C,C8*%
X105000000Y-70520000D03*
X105000000Y-71480000D03*
%TD*%
%TO.C,C15*%
X104250000Y-80520000D03*
X104250000Y-81480000D03*
%TD*%
D10*
%TO.C,H4*%
X132000000Y-59500000D03*
%TD*%
D19*
%TO.C,SW1*%
X95030000Y-63100000D03*
X92820000Y-63100000D03*
D20*
X93920000Y-65250000D03*
X93920000Y-68250000D03*
D19*
X95030000Y-70400000D03*
X92820000Y-70400000D03*
D21*
X95680000Y-64500000D03*
X95680000Y-67500000D03*
X95680000Y-69000000D03*
%TD*%
D22*
%TO.C,R3*%
X102750000Y-90750000D03*
X102750000Y-91770000D03*
%TD*%
D23*
%TO.C,C13*%
X104750000Y-74980000D03*
X104750000Y-74020000D03*
%TD*%
D24*
%TO.C,C1*%
X119300000Y-80500000D03*
X121200000Y-80500000D03*
%TD*%
D10*
%TO.C,H2*%
X95000000Y-94000000D03*
%TD*%
D25*
%TO.C,R6*%
X97250000Y-64510000D03*
X97250000Y-63490000D03*
%TD*%
D26*
%TO.C,C3*%
X107980000Y-88760000D03*
X107020000Y-88760000D03*
%TD*%
D22*
%TO.C,R7*%
X120000000Y-70490000D03*
X120000000Y-71510000D03*
%TD*%
D23*
%TO.C,C4*%
X101500000Y-72730000D03*
X101500000Y-71770000D03*
%TD*%
D26*
%TO.C,C9*%
X114730000Y-79500000D03*
X113770000Y-79500000D03*
%TD*%
D17*
%TO.C,R2*%
X109240000Y-88750000D03*
X110260000Y-88750000D03*
%TD*%
D18*
%TO.C,C5*%
X101500000Y-73770000D03*
X101500000Y-74730000D03*
%TD*%
D15*
%TO.C,C7*%
X108020000Y-79500000D03*
X108980000Y-79500000D03*
%TD*%
D10*
%TO.C,H1*%
X94500000Y-59500000D03*
%TD*%
D25*
%TO.C,R5*%
X100750000Y-91770000D03*
X100750000Y-90750000D03*
%TD*%
D27*
%TO.C,Y1*%
X97900000Y-72150000D03*
X97900000Y-74350000D03*
X99600000Y-74350000D03*
X99600000Y-72150000D03*
%TD*%
D28*
%TO.C,D1*%
X131250000Y-83712500D03*
X131250000Y-85287500D03*
%TD*%
D29*
%TO.C,U1*%
X127650000Y-87800000D03*
X127650000Y-85500000D03*
D30*
X121350000Y-85500000D03*
D29*
X127650000Y-83200000D03*
%TD*%
D31*
%TO.C,U3*%
X106837500Y-70750000D03*
X106837500Y-71250000D03*
X106837500Y-71750000D03*
X106837500Y-72250000D03*
X106837500Y-72750000D03*
X106837500Y-73250000D03*
X106837500Y-73750000D03*
X106837500Y-74250000D03*
X106837500Y-74750000D03*
X106837500Y-75250000D03*
X106837500Y-75750000D03*
X106837500Y-76250000D03*
D32*
X108250000Y-77662500D03*
X108750000Y-77662500D03*
X109250000Y-77662500D03*
X109750000Y-77662500D03*
X110250000Y-77662500D03*
X110750000Y-77662500D03*
X111250000Y-77662500D03*
X111750000Y-77662500D03*
X112250000Y-77662500D03*
X112750000Y-77662500D03*
X113250000Y-77662500D03*
X113750000Y-77662500D03*
D31*
X115162500Y-76250000D03*
X115162500Y-75750000D03*
X115162500Y-75250000D03*
X115162500Y-74750000D03*
X115162500Y-74250000D03*
X115162500Y-73750000D03*
X115162500Y-73250000D03*
X115162500Y-72750000D03*
X115162500Y-72250000D03*
X115162500Y-71750000D03*
X115162500Y-71250000D03*
X115162500Y-70750000D03*
D32*
X113750000Y-69337500D03*
X113250000Y-69337500D03*
X112750000Y-69337500D03*
X112250000Y-69337500D03*
X111750000Y-69337500D03*
X111250000Y-69337500D03*
X110750000Y-69337500D03*
X110250000Y-69337500D03*
X109750000Y-69337500D03*
X109250000Y-69337500D03*
X108750000Y-69337500D03*
X108250000Y-69337500D03*
%TD*%
D23*
%TO.C,C14*%
X110000000Y-82230000D03*
X110000000Y-81270000D03*
%TD*%
D15*
%TO.C,C11*%
X104270000Y-91500000D03*
X105230000Y-91500000D03*
%TD*%
D33*
%TO.C,U2*%
X99275000Y-83845000D03*
X99275000Y-85115000D03*
X99275000Y-86385000D03*
X99275000Y-87655000D03*
X104225000Y-87655000D03*
X104225000Y-86385000D03*
X104225000Y-85115000D03*
X104225000Y-83845000D03*
%TD*%
D34*
%TO.C,J3*%
X124310000Y-59500000D03*
D35*
X121770000Y-59500000D03*
X119230000Y-59500000D03*
X116690000Y-59500000D03*
%TD*%
D36*
%TO.C,D2*%
X108450000Y-82812500D03*
X106550000Y-82812500D03*
X107500000Y-84687500D03*
%TD*%
D37*
%TO.C,C2*%
X124950000Y-80500000D03*
X123050000Y-80500000D03*
%TD*%
D18*
%TO.C,C10*%
X117250000Y-70520000D03*
X117250000Y-71480000D03*
%TD*%
D22*
%TO.C,R1*%
X118750000Y-82980000D03*
X118750000Y-84000000D03*
%TD*%
D38*
%TO.C,C6*%
X107725000Y-66000000D03*
X109275000Y-66000000D03*
%TD*%
D34*
%TO.C,J1*%
X108170000Y-92500000D03*
D35*
X110710000Y-92500000D03*
X113250000Y-92500000D03*
X115790000Y-92500000D03*
%TD*%
D34*
%TO.C,J2*%
X109040000Y-59500000D03*
D35*
X106500000Y-59500000D03*
X103960000Y-59500000D03*
X101420000Y-59500000D03*
%TD*%
M02*
