M48
; DRILL file {KiCad 9.0.6} date 2026-02-08T19:38:44+0530
; FORMAT={-:-/ absolute / metric / decimal}
; #@! TF.CreationDate,2026-02-08T19:38:44+05:30
; #@! TF.GenerationSoftware,Kicad,Pcbnew,9.0.6
; #@! TF.FileFunction,Plated,1,2,PTH
FMAT,2
METRIC
; #@! TA.AperFunction,Plated,PTH,ViaDrill
T1C0.300
; #@! TA.AperFunction,Plated,PTH,ComponentDrill
T2C0.550
; #@! TA.AperFunction,Plated,PTH,ComponentDrill
T3C0.850
; #@! TA.AperFunction,Plated,PTH,ComponentDrill
T4C1.000
%
G90
G05
T1
X94.5Y-66.5
X96.0Y-63.5
X96.73Y-68.25
X97.351Y-90.0
X98.25Y-63.25
X98.651Y-90.0
X99.25Y-63.25
X99.5Y-70.75
X99.75Y-90.75
X100.75Y-89.25
X101.5Y-71.0
X101.5Y-75.5
X101.75Y-88.5
X101.75Y-90.75
X102.25Y-74.75
X103.0Y-70.75
X103.0Y-74.0
X103.75Y-90.75
X104.0Y-74.0
X104.25Y-82.062
X104.25Y-83.562
X104.25Y-89.25
X104.75Y-75.75
X105.0Y-72.1
X105.0Y-73.9
X106.25Y-79.287
X106.75Y-64.05
X106.75Y-70.539
X108.1Y-69.337
X109.0Y-80.25
X109.85Y-64.75
X111.6Y-82.75
X112.4Y-62.5
X112.75Y-76.25
X113.9Y-80.25
X113.9Y-82.75
X117.0Y-89.5
X117.049Y-81.5
X117.627Y-72.708
X118.25Y-71.5
X118.35Y-90.75
X119.0Y-81.5
X119.75Y-84.0
X121.75Y-78.75
X124.0Y-78.75
X125.0Y-77.1
X125.0Y-78.4
X125.25Y-69.75
X125.25Y-71.0
X125.75Y-83.25
X126.75Y-69.75
X126.75Y-71.0
X128.75Y-68.0
T4
X101.42Y-59.5
X103.96Y-59.5
X106.5Y-59.5
X108.17Y-92.5
X109.04Y-59.5
X110.71Y-92.5
X113.25Y-92.5
X115.79Y-92.5
X116.69Y-59.5
X119.23Y-59.5
X121.77Y-59.5
X124.31Y-59.5
T2
G00X132.125Y-66.125
M15
G01X132.775Y-66.125
M16
G05
G00X132.125Y-73.875
M15
G01X132.775Y-73.875
M16
G05
T3
G00X128.375Y-66.275
M15
G01X128.925Y-66.275
M16
G05
G00X128.375Y-73.725
M15
G01X128.925Y-73.725
M16
G05
M30
