%TF.GenerationSoftware,KiCad,Pcbnew,9.0.6*%
%TF.CreationDate,2026-02-08T19:37:56+05:30*%
%TF.ProjectId,stm32,73746d33-322e-46b6-9963-61645f706362,rev?*%
%TF.SameCoordinates,Original*%
%TF.FileFunction,Copper,L2,Bot*%
%TF.FilePolarity,Positive*%
%FSLAX46Y46*%
G04 Gerber Fmt 4.6, Leading zero omitted, Abs format (unit mm)*
G04 Created by KiCad (PCBNEW 9.0.6) date 2026-02-08 19:37:56*
%MOMM*%
%LPD*%
G01*
G04 APERTURE LIST*
%TA.AperFunction,HeatsinkPad*%
%ADD10O,1.800000X1.150000*%
%TD*%
%TA.AperFunction,HeatsinkPad*%
%ADD11O,2.000000X1.450000*%
%TD*%
%TA.AperFunction,ComponentPad*%
%ADD12R,1.700000X1.700000*%
%TD*%
%TA.AperFunction,ComponentPad*%
%ADD13C,1.700000*%
%TD*%
%TA.AperFunction,ViaPad*%
%ADD14C,0.600000*%
%TD*%
%TA.AperFunction,Conductor*%
%ADD15C,0.300000*%
%TD*%
%TA.AperFunction,Conductor*%
%ADD16C,0.500000*%
%TD*%
G04 APERTURE END LIST*
D10*
%TO.P,J4,6,Shield*%
%TO.N,unconnected-(J4-Shield-Pad6)_1*%
X132450000Y-73875000D03*
D11*
%TO.N,unconnected-(J4-Shield-Pad6)_2*%
X128650000Y-73725000D03*
%TO.N,unconnected-(J4-Shield-Pad6)_3*%
X128650000Y-66275000D03*
D10*
%TO.N,unconnected-(J4-Shield-Pad6)*%
X132450000Y-66125000D03*
%TD*%
D12*
%TO.P,J3,1,Pin_1*%
%TO.N,+3.3V*%
X124310000Y-59500000D03*
D13*
%TO.P,J3,2,Pin_2*%
%TO.N,/SWDIO*%
X121770000Y-59500000D03*
%TO.P,J3,3,Pin_3*%
%TO.N,/SWCLK*%
X119230000Y-59500000D03*
%TO.P,J3,4,Pin_4*%
%TO.N,GND*%
X116690000Y-59500000D03*
%TD*%
D12*
%TO.P,J1,1,Pin_1*%
%TO.N,+3.3V*%
X108170000Y-92500000D03*
D13*
%TO.P,J1,2,Pin_2*%
%TO.N,/I2C2_SCL*%
X110710000Y-92500000D03*
%TO.P,J1,3,Pin_3*%
%TO.N,/I2C2_SDA*%
X113250000Y-92500000D03*
%TO.P,J1,4,Pin_4*%
%TO.N,GND*%
X115790000Y-92500000D03*
%TD*%
D12*
%TO.P,J2,1,Pin_1*%
%TO.N,+3.3V*%
X109040000Y-59500000D03*
D13*
%TO.P,J2,2,Pin_2*%
%TO.N,/USART1_TX*%
X106500000Y-59500000D03*
%TO.P,J2,3,Pin_3*%
%TO.N,/USART1_RX*%
X103960000Y-59500000D03*
%TO.P,J2,4,Pin_4*%
%TO.N,GND*%
X101420000Y-59500000D03*
%TD*%
D14*
%TO.N,GND*%
X105000000Y-73900000D03*
X94500000Y-66500000D03*
X119750000Y-84000000D03*
X112750000Y-76250000D03*
X113900000Y-80250000D03*
X104000000Y-74000000D03*
X104250000Y-82062500D03*
X118250000Y-71500000D03*
X101500000Y-75500000D03*
X96000000Y-63500000D03*
X109000000Y-80250000D03*
X112400000Y-62500000D03*
X128750000Y-68000000D03*
X109850000Y-64750000D03*
X103750000Y-90750000D03*
X102250000Y-74750000D03*
X121750000Y-78750000D03*
X96730000Y-68250001D03*
X101500000Y-71000000D03*
X104250000Y-89250000D03*
X104250000Y-83562500D03*
X105000000Y-72100000D03*
X99500000Y-70750000D03*
X124000000Y-78750000D03*
X117626890Y-72707650D03*
%TO.N,+3.3V*%
X108100000Y-69337500D03*
X98651000Y-90000000D03*
X111600000Y-82750000D03*
X113900000Y-82750000D03*
X106750000Y-70539000D03*
X125000000Y-77100000D03*
X117000000Y-89500000D03*
X106750000Y-64049997D03*
X125750000Y-83250000D03*
X117049000Y-81500000D03*
X118350000Y-90750000D03*
X125000000Y-78400000D03*
X97351000Y-90000000D03*
X119000000Y-81500000D03*
%TO.N,+3.3VA*%
X104750000Y-75750000D03*
X106250000Y-79287500D03*
%TO.N,Net-(U2-CANH)*%
X101750000Y-88500000D03*
X101750000Y-90750000D03*
%TO.N,Net-(U2-CANL)*%
X100750000Y-89250000D03*
X99750000Y-90750000D03*
%TO.N,/USB_D-*%
X126750000Y-71000000D03*
X125250000Y-71000000D03*
%TO.N,/USB_D+*%
X125250000Y-69750000D03*
X126750000Y-69750000D03*
%TO.N,Net-(U3-BOOT0)*%
X99250000Y-63250000D03*
X98250000Y-63250000D03*
%TO.N,/CAN_TX*%
X103000000Y-74000000D03*
X103000000Y-70750000D03*
%TD*%
D15*
%TO.N,GND*%
X116500000Y-77750000D02*
X114250000Y-77750000D01*
D16*
X95000000Y-67985083D02*
X94500000Y-67485083D01*
D15*
X114000000Y-77000000D02*
X113500000Y-77000000D01*
X104250000Y-90250000D02*
X103750000Y-90750000D01*
D16*
X102250000Y-74750000D02*
X103500000Y-74750000D01*
D15*
X117500000Y-78750000D02*
X116500000Y-77750000D01*
D16*
X105000000Y-72100000D02*
X105000000Y-73900000D01*
X99000000Y-60500000D02*
X100420000Y-60500000D01*
D15*
X104250000Y-89250000D02*
X104250000Y-90250000D01*
X110000000Y-81250000D02*
X111000000Y-80250000D01*
X114250000Y-77750000D02*
X114000000Y-77500000D01*
D16*
X100420000Y-60500000D02*
X101420000Y-59500000D01*
D15*
X117626890Y-72707650D02*
X116500000Y-73834540D01*
X121750000Y-78750000D02*
X117500000Y-78750000D01*
X128750000Y-68000000D02*
X121750000Y-68000000D01*
X109850000Y-64750000D02*
X112100000Y-62500000D01*
X113500000Y-77000000D02*
X112750000Y-76250000D01*
X104250000Y-82062500D02*
X104250000Y-83562500D01*
D16*
X104000000Y-74250000D02*
X104000000Y-74000000D01*
D15*
X116500000Y-73834540D02*
X116500000Y-77750000D01*
D16*
X96000000Y-63500000D02*
X99000000Y-60500000D01*
X96730000Y-68250001D02*
X95000000Y-68250000D01*
X103500000Y-74750000D02*
X104000000Y-74250000D01*
D15*
X114000000Y-77500000D02*
X114000000Y-77000000D01*
D16*
X94500000Y-67485083D02*
X94500000Y-66500000D01*
D15*
X111000000Y-80250000D02*
X113900000Y-80250000D01*
X121750000Y-68000000D02*
X118250000Y-71500000D01*
D16*
X95000000Y-68250000D02*
X95000000Y-67985083D01*
D15*
X112100000Y-62500000D02*
X112400000Y-62500000D01*
D16*
%TO.N,+3.3V*%
X98651000Y-90000000D02*
X97351000Y-90000000D01*
D15*
X106750000Y-64049997D02*
X109040000Y-61759997D01*
D16*
X113900000Y-82750000D02*
X111600000Y-82750000D01*
D15*
X109040000Y-61759997D02*
X109040000Y-59500000D01*
D16*
X125000000Y-78400000D02*
X125000000Y-77100000D01*
X118350000Y-90750000D02*
X118250000Y-90750000D01*
D15*
X106898500Y-70539000D02*
X106750000Y-70539000D01*
D16*
X117049000Y-81500000D02*
X119000000Y-81500000D01*
X118250000Y-90750000D02*
X117000000Y-89500000D01*
D15*
X108100000Y-69337500D02*
X106898500Y-70539000D01*
%TO.N,+3.3VA*%
X104750000Y-75750000D02*
X104750000Y-77787500D01*
X104750000Y-77787500D02*
X106250000Y-79287500D01*
D16*
%TO.N,Net-(U2-CANH)*%
X101750000Y-88500000D02*
X101750000Y-90750000D01*
%TO.N,Net-(U2-CANL)*%
X100750000Y-89750000D02*
X99750000Y-90750000D01*
X100750000Y-89250000D02*
X100750000Y-89750000D01*
D15*
%TO.N,/USB_D-*%
X125250000Y-71000000D02*
X126750000Y-71000000D01*
%TO.N,/USB_D+*%
X125250000Y-69750000D02*
X126750000Y-69750000D01*
%TO.N,Net-(U3-BOOT0)*%
X98250000Y-63250000D02*
X99250000Y-63250000D01*
D16*
%TO.N,/CAN_TX*%
X103000000Y-74000000D02*
X103000000Y-70750000D01*
%TD*%
%TA.AperFunction,Conductor*%
%TO.N,GND*%
G36*
X132088956Y-57260985D02*
G01*
X132350958Y-57286874D01*
X132366167Y-57289340D01*
X132622923Y-57347546D01*
X132637719Y-57351883D01*
X132885254Y-57441500D01*
X132899394Y-57447638D01*
X133038235Y-57518479D01*
X133133896Y-57567288D01*
X133147169Y-57575136D01*
X133365015Y-57722971D01*
X133377211Y-57732407D01*
X133575010Y-57906125D01*
X133585941Y-57917001D01*
X133760655Y-58113931D01*
X133770152Y-58126080D01*
X133919075Y-58343174D01*
X133926988Y-58356403D01*
X134038241Y-58571770D01*
X134047818Y-58590309D01*
X134054023Y-58604407D01*
X134144889Y-58851503D01*
X134149300Y-58866278D01*
X134208792Y-59122729D01*
X134211336Y-59137939D01*
X134238537Y-59399787D01*
X134239174Y-59415194D01*
X134234467Y-59640083D01*
X134232042Y-59657624D01*
X134232275Y-59657653D01*
X134231277Y-59665717D01*
X134231569Y-59703176D01*
X134231145Y-59714435D01*
X134228033Y-59751784D01*
X134228034Y-59751792D01*
X134230241Y-59764017D01*
X134232209Y-59785077D01*
X134499456Y-93996518D01*
X134499290Y-94003977D01*
X134483407Y-94307046D01*
X134482050Y-94319953D01*
X134434971Y-94617205D01*
X134432273Y-94629902D01*
X134354374Y-94920623D01*
X134350363Y-94932966D01*
X134242510Y-95213935D01*
X134237231Y-95225793D01*
X134100591Y-95493963D01*
X134094101Y-95505203D01*
X133930187Y-95757608D01*
X133922558Y-95768109D01*
X133733149Y-96002010D01*
X133724464Y-96011655D01*
X133511655Y-96224464D01*
X133502010Y-96233149D01*
X133268109Y-96422558D01*
X133257608Y-96430187D01*
X133005203Y-96594101D01*
X132993963Y-96600591D01*
X132725793Y-96737231D01*
X132713935Y-96742510D01*
X132432966Y-96850363D01*
X132420623Y-96854374D01*
X132129902Y-96932273D01*
X132117205Y-96934971D01*
X131819953Y-96982050D01*
X131807046Y-96983407D01*
X131503244Y-96999330D01*
X131496754Y-96999500D01*
X94934106Y-96999500D01*
X94933249Y-96999612D01*
X94933064Y-96999718D01*
X94931200Y-96999882D01*
X94926054Y-97000560D01*
X94926024Y-97000339D01*
X94897906Y-97002822D01*
X94678102Y-96990779D01*
X94664615Y-96989297D01*
X94353268Y-96937706D01*
X94340024Y-96934759D01*
X94036175Y-96849460D01*
X94023335Y-96845085D01*
X93730622Y-96727097D01*
X93718344Y-96721348D01*
X93440285Y-96572094D01*
X93428699Y-96565033D01*
X93168604Y-96386288D01*
X93157859Y-96378003D01*
X92918847Y-96171908D01*
X92909082Y-96162508D01*
X92694019Y-95931536D01*
X92685330Y-95921115D01*
X92496793Y-95668034D01*
X92489295Y-95656726D01*
X92329535Y-95384557D01*
X92323317Y-95372498D01*
X92254977Y-95220007D01*
X92194251Y-95084506D01*
X92189389Y-95071843D01*
X92175935Y-95030109D01*
X92092554Y-94771460D01*
X92089111Y-94758367D01*
X92025674Y-94449196D01*
X92023681Y-94435795D01*
X91994403Y-94121550D01*
X91993886Y-94108011D01*
X91997437Y-93893713D01*
X93649500Y-93893713D01*
X93649500Y-94106286D01*
X93682324Y-94313533D01*
X93682754Y-94316243D01*
X93725956Y-94449205D01*
X93748444Y-94518414D01*
X93844951Y-94707820D01*
X93969890Y-94879786D01*
X94120213Y-95030109D01*
X94292179Y-95155048D01*
X94292181Y-95155049D01*
X94292184Y-95155051D01*
X94481588Y-95251557D01*
X94683757Y-95317246D01*
X94893713Y-95350500D01*
X94893714Y-95350500D01*
X95106286Y-95350500D01*
X95106287Y-95350500D01*
X95316243Y-95317246D01*
X95518412Y-95251557D01*
X95707816Y-95155051D01*
X95729789Y-95139086D01*
X95879786Y-95030109D01*
X95879788Y-95030106D01*
X95879792Y-95030104D01*
X96030104Y-94879792D01*
X96030106Y-94879788D01*
X96030109Y-94879786D01*
X96155048Y-94707820D01*
X96155047Y-94707820D01*
X96155051Y-94707816D01*
X96251557Y-94518412D01*
X96317246Y-94316243D01*
X96350500Y-94106287D01*
X96350500Y-93893713D01*
X130149500Y-93893713D01*
X130149500Y-94106286D01*
X130182324Y-94313533D01*
X130182754Y-94316243D01*
X130225956Y-94449205D01*
X130248444Y-94518414D01*
X130344951Y-94707820D01*
X130469890Y-94879786D01*
X130620213Y-95030109D01*
X130792179Y-95155048D01*
X130792181Y-95155049D01*
X130792184Y-95155051D01*
X130981588Y-95251557D01*
X131183757Y-95317246D01*
X131393713Y-95350500D01*
X131393714Y-95350500D01*
X131606286Y-95350500D01*
X131606287Y-95350500D01*
X131816243Y-95317246D01*
X132018412Y-95251557D01*
X132207816Y-95155051D01*
X132229789Y-95139086D01*
X132379786Y-95030109D01*
X132379788Y-95030106D01*
X132379792Y-95030104D01*
X132530104Y-94879792D01*
X132530106Y-94879788D01*
X132530109Y-94879786D01*
X132655048Y-94707820D01*
X132655047Y-94707820D01*
X132655051Y-94707816D01*
X132751557Y-94518412D01*
X132817246Y-94316243D01*
X132850500Y-94106287D01*
X132850500Y-93893713D01*
X132817246Y-93683757D01*
X132751557Y-93481588D01*
X132655051Y-93292184D01*
X132655049Y-93292181D01*
X132655048Y-93292179D01*
X132530109Y-93120213D01*
X132379786Y-92969890D01*
X132207820Y-92844951D01*
X132018414Y-92748444D01*
X132018413Y-92748443D01*
X132018412Y-92748443D01*
X131816243Y-92682754D01*
X131816241Y-92682753D01*
X131816240Y-92682753D01*
X131654957Y-92657208D01*
X131606287Y-92649500D01*
X131393713Y-92649500D01*
X131345042Y-92657208D01*
X131183760Y-92682753D01*
X130981585Y-92748444D01*
X130792179Y-92844951D01*
X130620213Y-92969890D01*
X130469890Y-93120213D01*
X130344951Y-93292179D01*
X130248444Y-93481585D01*
X130182753Y-93683760D01*
X130149500Y-93893713D01*
X96350500Y-93893713D01*
X96317246Y-93683757D01*
X96251557Y-93481588D01*
X96155051Y-93292184D01*
X96155049Y-93292181D01*
X96155048Y-93292179D01*
X96030109Y-93120213D01*
X95879786Y-92969890D01*
X95707820Y-92844951D01*
X95518414Y-92748444D01*
X95518413Y-92748443D01*
X95518412Y-92748443D01*
X95316243Y-92682754D01*
X95316241Y-92682753D01*
X95316240Y-92682753D01*
X95154957Y-92657208D01*
X95106287Y-92649500D01*
X94893713Y-92649500D01*
X94845042Y-92657208D01*
X94683760Y-92682753D01*
X94481585Y-92748444D01*
X94292179Y-92844951D01*
X94120213Y-92969890D01*
X93969890Y-93120213D01*
X93844951Y-93292179D01*
X93748444Y-93481585D01*
X93682753Y-93683760D01*
X93649500Y-93893713D01*
X91997437Y-93893713D01*
X91998356Y-93838217D01*
X92000383Y-93824075D01*
X91999439Y-93823951D01*
X92000500Y-93815892D01*
X92000500Y-93772278D01*
X92000815Y-93763443D01*
X92001697Y-93751095D01*
X92003923Y-93719935D01*
X92002743Y-93713815D01*
X92000500Y-93690337D01*
X92000500Y-91630247D01*
X107119500Y-91630247D01*
X107119500Y-93369752D01*
X107131131Y-93428229D01*
X107131132Y-93428230D01*
X107175447Y-93494552D01*
X107241769Y-93538867D01*
X107241770Y-93538868D01*
X107300247Y-93550499D01*
X107300250Y-93550500D01*
X107300252Y-93550500D01*
X109039750Y-93550500D01*
X109039751Y-93550499D01*
X109054568Y-93547552D01*
X109098229Y-93538868D01*
X109098229Y-93538867D01*
X109098231Y-93538867D01*
X109164552Y-93494552D01*
X109208867Y-93428231D01*
X109208867Y-93428229D01*
X109208868Y-93428229D01*
X109220499Y-93369752D01*
X109220500Y-93369750D01*
X109220500Y-92396530D01*
X109659500Y-92396530D01*
X109659500Y-92603469D01*
X109699868Y-92806412D01*
X109699870Y-92806420D01*
X109765939Y-92965925D01*
X109779059Y-92997598D01*
X109792836Y-93018217D01*
X109894024Y-93169657D01*
X110040342Y-93315975D01*
X110040345Y-93315977D01*
X110212402Y-93430941D01*
X110403580Y-93510130D01*
X110548052Y-93538867D01*
X110606530Y-93550499D01*
X110606534Y-93550500D01*
X110606535Y-93550500D01*
X110813466Y-93550500D01*
X110813467Y-93550499D01*
X111016420Y-93510130D01*
X111207598Y-93430941D01*
X111379655Y-93315977D01*
X111525977Y-93169655D01*
X111640941Y-92997598D01*
X111720130Y-92806420D01*
X111760500Y-92603465D01*
X111760500Y-92396535D01*
X111760499Y-92396530D01*
X112199500Y-92396530D01*
X112199500Y-92603469D01*
X112239868Y-92806412D01*
X112239870Y-92806420D01*
X112305939Y-92965925D01*
X112319059Y-92997598D01*
X112332836Y-93018217D01*
X112434024Y-93169657D01*
X112580342Y-93315975D01*
X112580345Y-93315977D01*
X112752402Y-93430941D01*
X112943580Y-93510130D01*
X113088052Y-93538867D01*
X113146530Y-93550499D01*
X113146534Y-93550500D01*
X113146535Y-93550500D01*
X113353466Y-93550500D01*
X113353467Y-93550499D01*
X113556420Y-93510130D01*
X113747598Y-93430941D01*
X113839175Y-93369752D01*
X113847738Y-93364029D01*
X113919655Y-93315977D01*
X114065977Y-93169655D01*
X114180941Y-92997598D01*
X114249165Y-92832889D01*
X114293004Y-92778488D01*
X114359298Y-92756423D01*
X114426998Y-92773702D01*
X114474609Y-92824839D01*
X114481656Y-92842026D01*
X114538904Y-93018216D01*
X114635377Y-93207554D01*
X114734240Y-93343626D01*
X114734241Y-93343627D01*
X115346329Y-92731538D01*
X115389901Y-92807007D01*
X115482993Y-92900099D01*
X115558460Y-92943670D01*
X114946371Y-93555758D01*
X115082445Y-93654622D01*
X115271782Y-93751095D01*
X115473870Y-93816757D01*
X115683754Y-93850000D01*
X115896246Y-93850000D01*
X116106127Y-93816757D01*
X116106130Y-93816757D01*
X116247234Y-93770910D01*
X116308217Y-93751095D01*
X116497546Y-93654626D01*
X116497552Y-93654622D01*
X116633626Y-93555758D01*
X116633627Y-93555758D01*
X116021538Y-92943670D01*
X116097007Y-92900099D01*
X116190099Y-92807007D01*
X116233670Y-92731539D01*
X116845758Y-93343627D01*
X116845758Y-93343626D01*
X116944622Y-93207552D01*
X116944626Y-93207546D01*
X117041095Y-93018217D01*
X117106757Y-92816130D01*
X117106757Y-92816127D01*
X117140000Y-92606246D01*
X117140000Y-92393753D01*
X117106757Y-92183872D01*
X117106757Y-92183869D01*
X117041095Y-91981782D01*
X116944622Y-91792445D01*
X116845758Y-91656372D01*
X116845758Y-91656371D01*
X116233670Y-92268460D01*
X116190099Y-92192993D01*
X116097007Y-92099901D01*
X116021539Y-92056329D01*
X116633627Y-91444241D01*
X116633626Y-91444240D01*
X116497554Y-91345377D01*
X116308217Y-91248904D01*
X116106129Y-91183242D01*
X115896246Y-91150000D01*
X115683754Y-91150000D01*
X115473872Y-91183242D01*
X115473869Y-91183242D01*
X115271782Y-91248904D01*
X115082442Y-91345379D01*
X114946372Y-91444239D01*
X114946371Y-91444240D01*
X115558461Y-92056329D01*
X115482993Y-92099901D01*
X115389901Y-92192993D01*
X115346329Y-92268460D01*
X114734240Y-91656371D01*
X114734239Y-91656372D01*
X114635379Y-91792442D01*
X114538905Y-91981781D01*
X114481656Y-92157974D01*
X114442218Y-92215649D01*
X114377859Y-92242847D01*
X114309013Y-92230932D01*
X114257537Y-92183688D01*
X114249164Y-92167107D01*
X114180943Y-92002405D01*
X114065975Y-91830342D01*
X113919657Y-91684024D01*
X113839173Y-91630247D01*
X113781045Y-91591408D01*
X113747597Y-91569058D01*
X113556420Y-91489870D01*
X113556412Y-91489868D01*
X113353469Y-91449500D01*
X113353465Y-91449500D01*
X113146535Y-91449500D01*
X113146530Y-91449500D01*
X112943587Y-91489868D01*
X112943579Y-91489870D01*
X112752403Y-91569058D01*
X112580342Y-91684024D01*
X112434024Y-91830342D01*
X112319058Y-92002403D01*
X112239870Y-92193579D01*
X112239868Y-92193587D01*
X112199500Y-92396530D01*
X111760499Y-92396530D01*
X111720130Y-92193580D01*
X111640941Y-92002402D01*
X111525977Y-91830345D01*
X111525975Y-91830342D01*
X111379657Y-91684024D01*
X111293626Y-91626541D01*
X111207598Y-91569059D01*
X111016420Y-91489870D01*
X111016412Y-91489868D01*
X110813469Y-91449500D01*
X110813465Y-91449500D01*
X110606535Y-91449500D01*
X110606530Y-91449500D01*
X110403587Y-91489868D01*
X110403579Y-91489870D01*
X110212403Y-91569058D01*
X110040342Y-91684024D01*
X109894024Y-91830342D01*
X109779058Y-92002403D01*
X109699870Y-92193579D01*
X109699868Y-92193587D01*
X109659500Y-92396530D01*
X109220500Y-92396530D01*
X109220500Y-91630249D01*
X109220499Y-91630247D01*
X109208868Y-91571770D01*
X109208867Y-91571769D01*
X109164552Y-91505447D01*
X109098230Y-91461132D01*
X109098229Y-91461131D01*
X109039752Y-91449500D01*
X109039748Y-91449500D01*
X107300252Y-91449500D01*
X107300247Y-91449500D01*
X107241770Y-91461131D01*
X107241769Y-91461132D01*
X107175447Y-91505447D01*
X107131132Y-91571769D01*
X107131131Y-91571770D01*
X107119500Y-91630247D01*
X92000500Y-91630247D01*
X92000500Y-90684108D01*
X99249500Y-90684108D01*
X99249500Y-90815891D01*
X99283608Y-90943187D01*
X99316554Y-91000250D01*
X99349500Y-91057314D01*
X99442686Y-91150500D01*
X99556814Y-91216392D01*
X99684108Y-91250500D01*
X99684110Y-91250500D01*
X99815890Y-91250500D01*
X99815892Y-91250500D01*
X99943186Y-91216392D01*
X100057314Y-91150500D01*
X100150500Y-91057314D01*
X100216392Y-90943186D01*
X100216393Y-90943180D01*
X100219504Y-90935674D01*
X100220842Y-90936228D01*
X100248111Y-90888990D01*
X101087821Y-90049281D01*
X101149142Y-90015798D01*
X101218834Y-90020782D01*
X101274767Y-90062654D01*
X101299184Y-90128118D01*
X101299500Y-90136964D01*
X101299500Y-90496062D01*
X101285383Y-90548751D01*
X101286719Y-90549304D01*
X101283608Y-90556814D01*
X101249500Y-90684108D01*
X101249500Y-90815891D01*
X101283608Y-90943187D01*
X101316554Y-91000250D01*
X101349500Y-91057314D01*
X101442686Y-91150500D01*
X101556814Y-91216392D01*
X101684108Y-91250500D01*
X101684110Y-91250500D01*
X101815890Y-91250500D01*
X101815892Y-91250500D01*
X101943186Y-91216392D01*
X102057314Y-91150500D01*
X102150500Y-91057314D01*
X102216392Y-90943186D01*
X102250500Y-90815892D01*
X102250500Y-90684108D01*
X102216392Y-90556814D01*
X102216388Y-90556807D01*
X102213281Y-90549304D01*
X102214616Y-90548751D01*
X102200500Y-90496062D01*
X102200500Y-89434108D01*
X116499500Y-89434108D01*
X116499500Y-89565891D01*
X116533608Y-89693187D01*
X116566554Y-89750250D01*
X116599500Y-89807314D01*
X116692686Y-89900500D01*
X116806814Y-89966392D01*
X116806816Y-89966392D01*
X116814326Y-89969504D01*
X116813771Y-89970841D01*
X116861010Y-89998113D01*
X117973386Y-91110489D01*
X118025414Y-91140527D01*
X118035644Y-91146434D01*
X118035647Y-91146436D01*
X118035648Y-91146436D01*
X118042685Y-91150499D01*
X118042686Y-91150500D01*
X118156814Y-91216392D01*
X118284108Y-91250500D01*
X118284110Y-91250500D01*
X118415890Y-91250500D01*
X118415892Y-91250500D01*
X118543186Y-91216392D01*
X118657314Y-91150500D01*
X118750500Y-91057314D01*
X118816392Y-90943186D01*
X118850500Y-90815892D01*
X118850500Y-90684108D01*
X118816392Y-90556814D01*
X118750500Y-90442686D01*
X118657314Y-90349500D01*
X118600250Y-90316554D01*
X118543187Y-90283608D01*
X118487399Y-90268660D01*
X118415892Y-90249500D01*
X118415891Y-90249500D01*
X118408042Y-90247397D01*
X118408910Y-90244156D01*
X118358961Y-90221400D01*
X118352398Y-90215295D01*
X117498113Y-89361010D01*
X117470841Y-89313771D01*
X117469504Y-89314326D01*
X117466392Y-89306815D01*
X117466392Y-89306814D01*
X117400500Y-89192686D01*
X117307314Y-89099500D01*
X117233380Y-89056814D01*
X117193187Y-89033608D01*
X117129539Y-89016554D01*
X117065892Y-88999500D01*
X116934108Y-88999500D01*
X116806812Y-89033608D01*
X116692686Y-89099500D01*
X116692683Y-89099502D01*
X116599502Y-89192683D01*
X116599500Y-89192686D01*
X116533608Y-89306812D01*
X116499500Y-89434108D01*
X102200500Y-89434108D01*
X102200500Y-88753936D01*
X102214618Y-88701246D01*
X102213282Y-88700693D01*
X102216388Y-88693192D01*
X102216392Y-88693186D01*
X102250500Y-88565892D01*
X102250500Y-88434108D01*
X102216392Y-88306814D01*
X102150500Y-88192686D01*
X102057314Y-88099500D01*
X102000250Y-88066554D01*
X101943187Y-88033608D01*
X101879539Y-88016554D01*
X101815892Y-87999500D01*
X101684108Y-87999500D01*
X101556812Y-88033608D01*
X101442686Y-88099500D01*
X101442683Y-88099502D01*
X101349502Y-88192683D01*
X101349500Y-88192686D01*
X101283608Y-88306812D01*
X101249500Y-88434108D01*
X101249500Y-88565891D01*
X101283608Y-88693186D01*
X101286718Y-88700693D01*
X101285381Y-88701246D01*
X101287035Y-88707422D01*
X101294477Y-88719001D01*
X101299500Y-88753936D01*
X101299500Y-88792324D01*
X101279815Y-88859363D01*
X101227011Y-88905118D01*
X101157853Y-88915062D01*
X101094297Y-88886037D01*
X101087819Y-88880005D01*
X101057316Y-88849502D01*
X101057314Y-88849500D01*
X100958283Y-88792324D01*
X100943187Y-88783608D01*
X100879539Y-88766554D01*
X100815892Y-88749500D01*
X100684108Y-88749500D01*
X100556812Y-88783608D01*
X100442686Y-88849500D01*
X100442683Y-88849502D01*
X100349502Y-88942683D01*
X100349500Y-88942686D01*
X100283608Y-89056812D01*
X100249500Y-89184108D01*
X100249500Y-89315891D01*
X100283608Y-89443186D01*
X100286718Y-89450693D01*
X100285381Y-89451246D01*
X100287035Y-89457422D01*
X100294477Y-89469001D01*
X100299500Y-89503936D01*
X100299500Y-89512034D01*
X100279815Y-89579073D01*
X100263181Y-89599715D01*
X99611009Y-90251886D01*
X99563775Y-90279161D01*
X99564328Y-90280495D01*
X99556816Y-90283606D01*
X99442689Y-90349498D01*
X99442683Y-90349502D01*
X99349502Y-90442683D01*
X99349500Y-90442686D01*
X99283608Y-90556812D01*
X99249500Y-90684108D01*
X92000500Y-90684108D01*
X92000500Y-89934108D01*
X96850500Y-89934108D01*
X96850500Y-90065891D01*
X96884608Y-90193187D01*
X96900897Y-90221400D01*
X96950500Y-90307314D01*
X97043686Y-90400500D01*
X97142521Y-90457563D01*
X97152425Y-90463281D01*
X97157814Y-90466392D01*
X97285108Y-90500500D01*
X97285110Y-90500500D01*
X97416890Y-90500500D01*
X97416892Y-90500500D01*
X97544186Y-90466392D01*
X97544194Y-90466387D01*
X97551696Y-90463281D01*
X97552249Y-90464618D01*
X97604937Y-90450500D01*
X98397063Y-90450500D01*
X98449750Y-90464618D01*
X98450304Y-90463281D01*
X98457807Y-90466388D01*
X98457814Y-90466392D01*
X98585108Y-90500500D01*
X98585110Y-90500500D01*
X98716890Y-90500500D01*
X98716892Y-90500500D01*
X98844186Y-90466392D01*
X98958314Y-90400500D01*
X99051500Y-90307314D01*
X99117392Y-90193186D01*
X99151500Y-90065892D01*
X99151500Y-89934108D01*
X99117392Y-89806814D01*
X99051500Y-89692686D01*
X98958314Y-89599500D01*
X98871712Y-89549500D01*
X98844187Y-89533608D01*
X98763670Y-89512034D01*
X98716892Y-89499500D01*
X98585108Y-89499500D01*
X98457814Y-89533608D01*
X98450304Y-89536719D01*
X98449750Y-89535381D01*
X98397063Y-89549500D01*
X97604937Y-89549500D01*
X97552249Y-89535381D01*
X97551696Y-89536719D01*
X97544188Y-89533609D01*
X97544186Y-89533608D01*
X97416892Y-89499500D01*
X97285108Y-89499500D01*
X97157812Y-89533608D01*
X97043686Y-89599500D01*
X97043683Y-89599502D01*
X96950502Y-89692683D01*
X96950500Y-89692686D01*
X96884608Y-89806812D01*
X96850500Y-89934108D01*
X92000500Y-89934108D01*
X92000500Y-82684108D01*
X111099500Y-82684108D01*
X111099500Y-82815891D01*
X111133608Y-82943187D01*
X111166554Y-83000250D01*
X111199500Y-83057314D01*
X111292686Y-83150500D01*
X111391521Y-83207563D01*
X111401425Y-83213281D01*
X111406814Y-83216392D01*
X111534108Y-83250500D01*
X111534110Y-83250500D01*
X111665890Y-83250500D01*
X111665892Y-83250500D01*
X111793186Y-83216392D01*
X111793194Y-83216387D01*
X111800696Y-83213281D01*
X111801249Y-83214618D01*
X111853937Y-83200500D01*
X113646063Y-83200500D01*
X113698750Y-83214618D01*
X113699304Y-83213281D01*
X113706807Y-83216388D01*
X113706814Y-83216392D01*
X113834108Y-83250500D01*
X113834110Y-83250500D01*
X113965890Y-83250500D01*
X113965892Y-83250500D01*
X114093186Y-83216392D01*
X114149103Y-83184108D01*
X125249500Y-83184108D01*
X125249500Y-83315891D01*
X125283608Y-83443187D01*
X125316554Y-83500250D01*
X125349500Y-83557314D01*
X125442686Y-83650500D01*
X125556814Y-83716392D01*
X125684108Y-83750500D01*
X125684110Y-83750500D01*
X125815890Y-83750500D01*
X125815892Y-83750500D01*
X125943186Y-83716392D01*
X126057314Y-83650500D01*
X126150500Y-83557314D01*
X126216392Y-83443186D01*
X126250500Y-83315892D01*
X126250500Y-83184108D01*
X126216392Y-83056814D01*
X126150500Y-82942686D01*
X126057314Y-82849500D01*
X125999100Y-82815890D01*
X125943187Y-82783608D01*
X125879539Y-82766554D01*
X125815892Y-82749500D01*
X125684108Y-82749500D01*
X125556812Y-82783608D01*
X125442686Y-82849500D01*
X125442683Y-82849502D01*
X125349502Y-82942683D01*
X125349500Y-82942686D01*
X125283608Y-83056812D01*
X125249500Y-83184108D01*
X114149103Y-83184108D01*
X114207314Y-83150500D01*
X114300500Y-83057314D01*
X114366392Y-82943186D01*
X114400500Y-82815892D01*
X114400500Y-82684108D01*
X114366392Y-82556814D01*
X114300500Y-82442686D01*
X114207314Y-82349500D01*
X114120712Y-82299500D01*
X114093187Y-82283608D01*
X114029539Y-82266554D01*
X113965892Y-82249500D01*
X113834108Y-82249500D01*
X113706814Y-82283608D01*
X113699304Y-82286719D01*
X113698750Y-82285381D01*
X113646063Y-82299500D01*
X111853937Y-82299500D01*
X111801249Y-82285381D01*
X111800696Y-82286719D01*
X111793188Y-82283609D01*
X111793186Y-82283608D01*
X111665892Y-82249500D01*
X111534108Y-82249500D01*
X111406812Y-82283608D01*
X111292686Y-82349500D01*
X111292683Y-82349502D01*
X111199502Y-82442683D01*
X111199500Y-82442686D01*
X111133608Y-82556812D01*
X111099500Y-82684108D01*
X92000500Y-82684108D01*
X92000500Y-81434108D01*
X116548500Y-81434108D01*
X116548500Y-81565891D01*
X116582608Y-81693187D01*
X116615554Y-81750250D01*
X116648500Y-81807314D01*
X116741686Y-81900500D01*
X116840521Y-81957563D01*
X116850425Y-81963281D01*
X116855814Y-81966392D01*
X116983108Y-82000500D01*
X116983110Y-82000500D01*
X117114890Y-82000500D01*
X117114892Y-82000500D01*
X117242186Y-81966392D01*
X117242194Y-81966387D01*
X117249696Y-81963281D01*
X117250249Y-81964618D01*
X117302937Y-81950500D01*
X118746063Y-81950500D01*
X118798750Y-81964618D01*
X118799304Y-81963281D01*
X118806807Y-81966388D01*
X118806814Y-81966392D01*
X118934108Y-82000500D01*
X118934110Y-82000500D01*
X119065890Y-82000500D01*
X119065892Y-82000500D01*
X119193186Y-81966392D01*
X119307314Y-81900500D01*
X119400500Y-81807314D01*
X119466392Y-81693186D01*
X119500500Y-81565892D01*
X119500500Y-81434108D01*
X119466392Y-81306814D01*
X119400500Y-81192686D01*
X119307314Y-81099500D01*
X119220712Y-81049500D01*
X119193187Y-81033608D01*
X119129539Y-81016554D01*
X119065892Y-80999500D01*
X118934108Y-80999500D01*
X118806814Y-81033608D01*
X118799304Y-81036719D01*
X118798750Y-81035381D01*
X118746063Y-81049500D01*
X117302937Y-81049500D01*
X117250249Y-81035381D01*
X117249696Y-81036719D01*
X117242188Y-81033609D01*
X117242186Y-81033608D01*
X117114892Y-80999500D01*
X116983108Y-80999500D01*
X116855812Y-81033608D01*
X116741686Y-81099500D01*
X116741683Y-81099502D01*
X116648502Y-81192683D01*
X116648500Y-81192686D01*
X116582608Y-81306812D01*
X116548500Y-81434108D01*
X92000500Y-81434108D01*
X92000500Y-75684108D01*
X104249500Y-75684108D01*
X104249500Y-75815891D01*
X104283608Y-75943187D01*
X104316554Y-76000250D01*
X104349500Y-76057314D01*
X104349502Y-76057316D01*
X104363181Y-76070995D01*
X104396666Y-76132318D01*
X104399500Y-76158676D01*
X104399500Y-77833645D01*
X104417145Y-77899498D01*
X104423385Y-77922785D01*
X104423387Y-77922790D01*
X104469527Y-78002708D01*
X104469531Y-78002713D01*
X105713181Y-79246362D01*
X105746666Y-79307685D01*
X105749500Y-79334043D01*
X105749500Y-79353391D01*
X105783608Y-79480687D01*
X105816554Y-79537750D01*
X105849500Y-79594814D01*
X105942686Y-79688000D01*
X106056814Y-79753892D01*
X106184108Y-79788000D01*
X106184110Y-79788000D01*
X106315890Y-79788000D01*
X106315892Y-79788000D01*
X106443186Y-79753892D01*
X106557314Y-79688000D01*
X106650500Y-79594814D01*
X106716392Y-79480686D01*
X106750500Y-79353392D01*
X106750500Y-79221608D01*
X106716392Y-79094314D01*
X106650500Y-78980186D01*
X106557314Y-78887000D01*
X106500250Y-78854054D01*
X106443187Y-78821108D01*
X106366264Y-78800497D01*
X106315892Y-78787000D01*
X106315891Y-78787000D01*
X106296543Y-78787000D01*
X106229504Y-78767315D01*
X106208862Y-78750681D01*
X105136819Y-77678637D01*
X105103334Y-77617314D01*
X105100500Y-77590956D01*
X105100500Y-77034108D01*
X124499500Y-77034108D01*
X124499500Y-77165891D01*
X124533608Y-77293186D01*
X124536718Y-77300693D01*
X124535381Y-77301246D01*
X124549500Y-77353936D01*
X124549500Y-78146062D01*
X124535383Y-78198751D01*
X124536719Y-78199304D01*
X124533608Y-78206814D01*
X124499500Y-78334108D01*
X124499500Y-78465891D01*
X124533608Y-78593187D01*
X124566554Y-78650250D01*
X124599500Y-78707314D01*
X124692686Y-78800500D01*
X124806814Y-78866392D01*
X124934108Y-78900500D01*
X124934110Y-78900500D01*
X125065890Y-78900500D01*
X125065892Y-78900500D01*
X125193186Y-78866392D01*
X125307314Y-78800500D01*
X125400500Y-78707314D01*
X125466392Y-78593186D01*
X125500500Y-78465892D01*
X125500500Y-78334108D01*
X125466392Y-78206814D01*
X125466388Y-78206807D01*
X125463281Y-78199304D01*
X125464616Y-78198751D01*
X125450500Y-78146062D01*
X125450500Y-77353936D01*
X125464618Y-77301246D01*
X125463282Y-77300693D01*
X125466388Y-77293192D01*
X125466392Y-77293186D01*
X125500500Y-77165892D01*
X125500500Y-77034108D01*
X125466392Y-76906814D01*
X125400500Y-76792686D01*
X125307314Y-76699500D01*
X125250250Y-76666554D01*
X125193187Y-76633608D01*
X125129539Y-76616554D01*
X125065892Y-76599500D01*
X124934108Y-76599500D01*
X124806812Y-76633608D01*
X124692686Y-76699500D01*
X124692683Y-76699502D01*
X124599502Y-76792683D01*
X124599500Y-76792686D01*
X124533608Y-76906812D01*
X124499500Y-77034108D01*
X105100500Y-77034108D01*
X105100500Y-76158676D01*
X105120185Y-76091637D01*
X105136819Y-76070995D01*
X105150500Y-76057314D01*
X105216392Y-75943186D01*
X105250500Y-75815892D01*
X105250500Y-75684108D01*
X105216392Y-75556814D01*
X105150500Y-75442686D01*
X105057314Y-75349500D01*
X105000250Y-75316554D01*
X104943187Y-75283608D01*
X104879539Y-75266554D01*
X104815892Y-75249500D01*
X104684108Y-75249500D01*
X104556812Y-75283608D01*
X104442686Y-75349500D01*
X104442683Y-75349502D01*
X104349502Y-75442683D01*
X104349500Y-75442686D01*
X104283608Y-75556812D01*
X104249500Y-75684108D01*
X92000500Y-75684108D01*
X92000500Y-70684108D01*
X102499500Y-70684108D01*
X102499500Y-70815892D01*
X102531176Y-70934108D01*
X102533608Y-70943186D01*
X102536718Y-70950693D01*
X102535381Y-70951246D01*
X102549500Y-71003936D01*
X102549500Y-73746062D01*
X102535383Y-73798751D01*
X102536719Y-73799304D01*
X102533608Y-73806814D01*
X102499500Y-73934108D01*
X102499500Y-74065891D01*
X102533608Y-74193187D01*
X102561984Y-74242334D01*
X102599500Y-74307314D01*
X102692686Y-74400500D01*
X102806814Y-74466392D01*
X102934108Y-74500500D01*
X102934110Y-74500500D01*
X103065890Y-74500500D01*
X103065892Y-74500500D01*
X103193186Y-74466392D01*
X103307314Y-74400500D01*
X103400500Y-74307314D01*
X103466392Y-74193186D01*
X103500500Y-74065892D01*
X103500500Y-73934108D01*
X103468895Y-73816156D01*
X127449499Y-73816156D01*
X127485065Y-73994952D01*
X127485068Y-73994962D01*
X127554831Y-74163387D01*
X127554833Y-74163391D01*
X127656113Y-74314967D01*
X127656119Y-74314975D01*
X127785024Y-74443880D01*
X127785032Y-74443886D01*
X127936608Y-74545166D01*
X127936612Y-74545168D01*
X128105037Y-74614931D01*
X128105042Y-74614933D01*
X128105046Y-74614933D01*
X128105047Y-74614934D01*
X128283843Y-74650500D01*
X128283846Y-74650500D01*
X129016156Y-74650500D01*
X129136445Y-74626572D01*
X129194958Y-74614933D01*
X129363389Y-74545167D01*
X129363391Y-74545166D01*
X129464859Y-74477367D01*
X129514972Y-74443883D01*
X129643883Y-74314972D01*
X129725257Y-74193187D01*
X129745166Y-74163391D01*
X129745168Y-74163387D01*
X129814931Y-73994962D01*
X129814933Y-73994958D01*
X129850500Y-73816154D01*
X129850500Y-73798615D01*
X131349500Y-73798615D01*
X131349500Y-73951384D01*
X131379300Y-74101197D01*
X131379302Y-74101205D01*
X131437759Y-74242334D01*
X131437764Y-74242343D01*
X131522629Y-74369351D01*
X131522632Y-74369355D01*
X131630644Y-74477367D01*
X131630648Y-74477370D01*
X131757656Y-74562235D01*
X131757662Y-74562238D01*
X131757663Y-74562239D01*
X131898795Y-74620698D01*
X132048615Y-74650499D01*
X132048619Y-74650500D01*
X132048620Y-74650500D01*
X132851381Y-74650500D01*
X132851382Y-74650499D01*
X133001205Y-74620698D01*
X133142337Y-74562239D01*
X133269352Y-74477370D01*
X133377370Y-74369352D01*
X133462239Y-74242337D01*
X133520698Y-74101205D01*
X133550500Y-73951380D01*
X133550500Y-73798620D01*
X133520698Y-73648795D01*
X133462239Y-73507663D01*
X133462238Y-73507662D01*
X133462235Y-73507656D01*
X133377370Y-73380648D01*
X133377367Y-73380644D01*
X133269355Y-73272632D01*
X133269351Y-73272629D01*
X133142343Y-73187764D01*
X133142334Y-73187759D01*
X133001205Y-73129302D01*
X133001197Y-73129300D01*
X132851384Y-73099500D01*
X132851380Y-73099500D01*
X132048620Y-73099500D01*
X132048615Y-73099500D01*
X131898802Y-73129300D01*
X131898794Y-73129302D01*
X131757665Y-73187759D01*
X131757656Y-73187764D01*
X131630648Y-73272629D01*
X131630644Y-73272632D01*
X131522632Y-73380644D01*
X131522629Y-73380648D01*
X131437764Y-73507656D01*
X131437759Y-73507665D01*
X131379302Y-73648794D01*
X131379300Y-73648802D01*
X131349500Y-73798615D01*
X129850500Y-73798615D01*
X129850500Y-73633846D01*
X129850500Y-73633843D01*
X129814934Y-73455047D01*
X129814933Y-73455046D01*
X129814933Y-73455042D01*
X129752338Y-73303925D01*
X129744870Y-73234457D01*
X129776145Y-73171978D01*
X129836234Y-73136326D01*
X129842677Y-73134863D01*
X129889744Y-73125501D01*
X130008127Y-73076465D01*
X130114669Y-73005276D01*
X130205276Y-72914669D01*
X130276465Y-72808127D01*
X130325501Y-72689744D01*
X130350500Y-72564069D01*
X130350500Y-72435931D01*
X130350500Y-72435928D01*
X130325502Y-72310261D01*
X130325501Y-72310260D01*
X130325501Y-72310256D01*
X130276465Y-72191873D01*
X130276464Y-72191872D01*
X130276461Y-72191866D01*
X130205276Y-72085331D01*
X130205273Y-72085327D01*
X130114672Y-71994726D01*
X130114668Y-71994723D01*
X130008133Y-71923538D01*
X130008124Y-71923533D01*
X129889744Y-71874499D01*
X129889738Y-71874497D01*
X129764071Y-71849500D01*
X129764069Y-71849500D01*
X129635931Y-71849500D01*
X129635929Y-71849500D01*
X129510261Y-71874497D01*
X129510255Y-71874499D01*
X129391875Y-71923533D01*
X129391866Y-71923538D01*
X129285331Y-71994723D01*
X129285327Y-71994726D01*
X129194726Y-72085327D01*
X129194723Y-72085331D01*
X129123538Y-72191866D01*
X129123533Y-72191875D01*
X129074499Y-72310255D01*
X129074497Y-72310261D01*
X129049500Y-72435928D01*
X129049500Y-72435931D01*
X129049500Y-72564069D01*
X129049500Y-72564071D01*
X129049499Y-72564071D01*
X129066853Y-72651308D01*
X129060626Y-72720900D01*
X129017763Y-72776077D01*
X128951874Y-72799322D01*
X128945236Y-72799500D01*
X128283844Y-72799500D01*
X128105047Y-72835065D01*
X128105037Y-72835068D01*
X127936612Y-72904831D01*
X127936608Y-72904833D01*
X127785032Y-73006113D01*
X127785024Y-73006119D01*
X127656119Y-73135024D01*
X127656113Y-73135032D01*
X127554833Y-73286608D01*
X127554831Y-73286612D01*
X127485068Y-73455037D01*
X127485065Y-73455047D01*
X127449500Y-73633843D01*
X127449500Y-73633846D01*
X127449500Y-73816154D01*
X127449500Y-73816156D01*
X127449499Y-73816156D01*
X103468895Y-73816156D01*
X103466392Y-73806814D01*
X103466388Y-73806807D01*
X103463281Y-73799304D01*
X103464616Y-73798751D01*
X103462959Y-73792569D01*
X103455523Y-73780997D01*
X103450500Y-73746062D01*
X103450500Y-71003936D01*
X103464618Y-70951246D01*
X103463282Y-70950693D01*
X103466388Y-70943192D01*
X103466392Y-70943186D01*
X103500500Y-70815892D01*
X103500500Y-70684108D01*
X103466392Y-70556814D01*
X103466389Y-70556808D01*
X103449169Y-70526982D01*
X103449168Y-70526981D01*
X103418064Y-70473108D01*
X106249500Y-70473108D01*
X106249500Y-70604891D01*
X106283608Y-70732187D01*
X106316554Y-70789250D01*
X106349500Y-70846314D01*
X106442686Y-70939500D01*
X106556814Y-71005392D01*
X106684108Y-71039500D01*
X106684110Y-71039500D01*
X106815890Y-71039500D01*
X106815892Y-71039500D01*
X106943186Y-71005392D01*
X107057314Y-70939500D01*
X107062706Y-70934108D01*
X124749500Y-70934108D01*
X124749500Y-71065891D01*
X124783608Y-71193187D01*
X124816554Y-71250250D01*
X124849500Y-71307314D01*
X124942686Y-71400500D01*
X125056814Y-71466392D01*
X125184108Y-71500500D01*
X125184110Y-71500500D01*
X125315890Y-71500500D01*
X125315892Y-71500500D01*
X125443186Y-71466392D01*
X125557314Y-71400500D01*
X125570995Y-71386819D01*
X125632318Y-71353334D01*
X125658676Y-71350500D01*
X126341324Y-71350500D01*
X126408363Y-71370185D01*
X126429005Y-71386819D01*
X126442686Y-71400500D01*
X126556814Y-71466392D01*
X126684108Y-71500500D01*
X126684110Y-71500500D01*
X126815890Y-71500500D01*
X126815892Y-71500500D01*
X126943186Y-71466392D01*
X127057314Y-71400500D01*
X127150500Y-71307314D01*
X127216392Y-71193186D01*
X127250500Y-71065892D01*
X127250500Y-70934108D01*
X127216392Y-70806814D01*
X127150500Y-70692686D01*
X127057314Y-70599500D01*
X126983380Y-70556814D01*
X126943187Y-70533608D01*
X126879539Y-70516554D01*
X126815892Y-70499500D01*
X126684108Y-70499500D01*
X126556812Y-70533608D01*
X126442686Y-70599500D01*
X126442683Y-70599502D01*
X126429005Y-70613181D01*
X126367682Y-70646666D01*
X126341324Y-70649500D01*
X125658676Y-70649500D01*
X125591637Y-70629815D01*
X125570995Y-70613181D01*
X125557316Y-70599502D01*
X125557314Y-70599500D01*
X125483380Y-70556814D01*
X125443187Y-70533608D01*
X125379539Y-70516554D01*
X125315892Y-70499500D01*
X125184108Y-70499500D01*
X125056812Y-70533608D01*
X124942686Y-70599500D01*
X124942683Y-70599502D01*
X124849502Y-70692683D01*
X124849500Y-70692686D01*
X124783608Y-70806812D01*
X124749500Y-70934108D01*
X107062706Y-70934108D01*
X107150500Y-70846314D01*
X107216392Y-70732186D01*
X107217963Y-70726320D01*
X107225083Y-70714021D01*
X107232105Y-70707339D01*
X107244717Y-70688463D01*
X108058863Y-69874319D01*
X108120186Y-69840834D01*
X108146544Y-69838000D01*
X108165890Y-69838000D01*
X108165892Y-69838000D01*
X108293186Y-69803892D01*
X108407314Y-69738000D01*
X108461206Y-69684108D01*
X124749500Y-69684108D01*
X124749500Y-69815892D01*
X124755424Y-69838000D01*
X124783608Y-69943187D01*
X124816554Y-70000250D01*
X124849500Y-70057314D01*
X124942686Y-70150500D01*
X125056814Y-70216392D01*
X125184108Y-70250500D01*
X125184110Y-70250500D01*
X125315890Y-70250500D01*
X125315892Y-70250500D01*
X125443186Y-70216392D01*
X125557314Y-70150500D01*
X125570995Y-70136819D01*
X125632318Y-70103334D01*
X125658676Y-70100500D01*
X126341324Y-70100500D01*
X126408363Y-70120185D01*
X126429005Y-70136819D01*
X126442686Y-70150500D01*
X126556814Y-70216392D01*
X126684108Y-70250500D01*
X126684110Y-70250500D01*
X126815890Y-70250500D01*
X126815892Y-70250500D01*
X126943186Y-70216392D01*
X127057314Y-70150500D01*
X127150500Y-70057314D01*
X127216392Y-69943186D01*
X127250500Y-69815892D01*
X127250500Y-69684108D01*
X127216392Y-69556814D01*
X127150500Y-69442686D01*
X127057314Y-69349500D01*
X127000250Y-69316554D01*
X126943187Y-69283608D01*
X126879539Y-69266554D01*
X126815892Y-69249500D01*
X126684108Y-69249500D01*
X126556812Y-69283608D01*
X126442686Y-69349500D01*
X126442683Y-69349502D01*
X126429005Y-69363181D01*
X126367682Y-69396666D01*
X126341324Y-69399500D01*
X125658676Y-69399500D01*
X125591637Y-69379815D01*
X125570995Y-69363181D01*
X125557316Y-69349502D01*
X125557314Y-69349500D01*
X125500250Y-69316554D01*
X125443187Y-69283608D01*
X125379539Y-69266554D01*
X125315892Y-69249500D01*
X125184108Y-69249500D01*
X125056812Y-69283608D01*
X124942686Y-69349500D01*
X124942683Y-69349502D01*
X124849502Y-69442683D01*
X124849500Y-69442686D01*
X124783608Y-69556812D01*
X124760029Y-69644814D01*
X124749500Y-69684108D01*
X108461206Y-69684108D01*
X108500500Y-69644814D01*
X108501258Y-69643499D01*
X108518303Y-69613980D01*
X108566390Y-69530689D01*
X108566392Y-69530686D01*
X108600500Y-69403392D01*
X108600500Y-69271608D01*
X108566392Y-69144314D01*
X108500500Y-69030186D01*
X108407314Y-68937000D01*
X108350250Y-68904054D01*
X108293187Y-68871108D01*
X108229539Y-68854054D01*
X108165892Y-68837000D01*
X108034108Y-68837000D01*
X107906812Y-68871108D01*
X107792686Y-68937000D01*
X107792683Y-68937002D01*
X107699502Y-69030183D01*
X107699500Y-69030186D01*
X107633608Y-69144312D01*
X107599500Y-69271608D01*
X107599500Y-69290955D01*
X107579815Y-69357994D01*
X107563181Y-69378636D01*
X106935464Y-70006352D01*
X106874141Y-70039837D01*
X106824068Y-70038646D01*
X106823948Y-70039561D01*
X106815893Y-70038500D01*
X106815892Y-70038500D01*
X106684108Y-70038500D01*
X106556812Y-70072608D01*
X106442686Y-70138500D01*
X106442683Y-70138502D01*
X106349502Y-70231683D01*
X106349500Y-70231686D01*
X106283608Y-70345812D01*
X106249500Y-70473108D01*
X103418064Y-70473108D01*
X103400500Y-70442686D01*
X103307314Y-70349500D01*
X103250250Y-70316554D01*
X103193187Y-70283608D01*
X103129539Y-70266554D01*
X103065892Y-70249500D01*
X102934108Y-70249500D01*
X102806812Y-70283608D01*
X102692686Y-70349500D01*
X102692683Y-70349502D01*
X102599502Y-70442683D01*
X102599500Y-70442686D01*
X102533608Y-70556812D01*
X102509532Y-70646666D01*
X102499500Y-70684108D01*
X92000500Y-70684108D01*
X92000500Y-68318995D01*
X93219499Y-68318995D01*
X93246418Y-68454322D01*
X93246421Y-68454332D01*
X93299221Y-68581804D01*
X93299228Y-68581817D01*
X93375885Y-68696541D01*
X93375888Y-68696545D01*
X93473454Y-68794111D01*
X93473458Y-68794114D01*
X93588182Y-68870771D01*
X93588195Y-68870778D01*
X93715667Y-68923578D01*
X93715672Y-68923580D01*
X93715676Y-68923580D01*
X93715677Y-68923581D01*
X93851004Y-68950500D01*
X93851007Y-68950500D01*
X93988995Y-68950500D01*
X94080041Y-68932389D01*
X94124328Y-68923580D01*
X94251811Y-68870775D01*
X94366542Y-68794114D01*
X94464114Y-68696542D01*
X94540775Y-68581811D01*
X94593580Y-68454328D01*
X94620500Y-68318993D01*
X94620500Y-68181007D01*
X94620500Y-68181004D01*
X94593581Y-68045677D01*
X94593580Y-68045676D01*
X94593580Y-68045672D01*
X94593578Y-68045667D01*
X94540778Y-67918195D01*
X94540771Y-67918182D01*
X94464114Y-67803458D01*
X94464111Y-67803454D01*
X94366545Y-67705888D01*
X94366541Y-67705885D01*
X94251817Y-67629228D01*
X94251804Y-67629221D01*
X94124332Y-67576421D01*
X94124322Y-67576418D01*
X93988995Y-67549500D01*
X93988993Y-67549500D01*
X93851007Y-67549500D01*
X93851005Y-67549500D01*
X93715677Y-67576418D01*
X93715667Y-67576421D01*
X93588195Y-67629221D01*
X93588182Y-67629228D01*
X93473458Y-67705885D01*
X93473454Y-67705888D01*
X93375888Y-67803454D01*
X93375885Y-67803458D01*
X93299228Y-67918182D01*
X93299221Y-67918195D01*
X93246421Y-68045667D01*
X93246418Y-68045677D01*
X93219500Y-68181004D01*
X93219500Y-68181007D01*
X93219500Y-68318993D01*
X93219500Y-68318995D01*
X93219499Y-68318995D01*
X92000500Y-68318995D01*
X92000500Y-66366156D01*
X127449499Y-66366156D01*
X127485065Y-66544952D01*
X127485068Y-66544962D01*
X127554831Y-66713387D01*
X127554833Y-66713391D01*
X127656113Y-66864967D01*
X127656119Y-66864975D01*
X127785024Y-66993880D01*
X127785032Y-66993886D01*
X127936608Y-67095166D01*
X127936612Y-67095168D01*
X128105037Y-67164931D01*
X128105042Y-67164933D01*
X128105046Y-67164933D01*
X128105047Y-67164934D01*
X128283843Y-67200500D01*
X128945236Y-67200500D01*
X129012275Y-67220185D01*
X129058030Y-67272989D01*
X129067974Y-67342147D01*
X129066853Y-67348692D01*
X129049500Y-67435928D01*
X129049500Y-67435931D01*
X129049500Y-67564069D01*
X129049500Y-67564071D01*
X129049499Y-67564071D01*
X129074497Y-67689738D01*
X129074499Y-67689744D01*
X129123533Y-67808124D01*
X129123538Y-67808133D01*
X129194723Y-67914668D01*
X129194726Y-67914672D01*
X129285327Y-68005273D01*
X129285331Y-68005276D01*
X129391866Y-68076461D01*
X129391872Y-68076464D01*
X129391873Y-68076465D01*
X129510256Y-68125501D01*
X129510260Y-68125501D01*
X129510261Y-68125502D01*
X129635928Y-68150500D01*
X129635931Y-68150500D01*
X129764071Y-68150500D01*
X129848615Y-68133682D01*
X129889744Y-68125501D01*
X130008127Y-68076465D01*
X130114669Y-68005276D01*
X130205276Y-67914669D01*
X130276465Y-67808127D01*
X130325501Y-67689744D01*
X130348043Y-67576421D01*
X130350500Y-67564071D01*
X130350500Y-67435928D01*
X130325502Y-67310261D01*
X130325501Y-67310260D01*
X130325501Y-67310256D01*
X130287574Y-67218692D01*
X130276466Y-67191875D01*
X130276461Y-67191866D01*
X130205276Y-67085331D01*
X130205273Y-67085327D01*
X130114672Y-66994726D01*
X130114668Y-66994723D01*
X130008133Y-66923538D01*
X130008124Y-66923533D01*
X129889744Y-66874499D01*
X129889739Y-66874497D01*
X129842707Y-66865142D01*
X129780797Y-66832756D01*
X129746223Y-66772040D01*
X129749964Y-66702271D01*
X129752327Y-66696100D01*
X129814933Y-66544958D01*
X129850500Y-66366154D01*
X129850500Y-66183846D01*
X129850500Y-66183843D01*
X129827202Y-66066720D01*
X129823601Y-66048615D01*
X131349500Y-66048615D01*
X131349500Y-66201384D01*
X131379300Y-66351197D01*
X131379302Y-66351205D01*
X131437759Y-66492334D01*
X131437764Y-66492343D01*
X131522629Y-66619351D01*
X131522632Y-66619355D01*
X131630644Y-66727367D01*
X131630648Y-66727370D01*
X131757656Y-66812235D01*
X131757662Y-66812238D01*
X131757663Y-66812239D01*
X131898795Y-66870698D01*
X132048615Y-66900499D01*
X132048619Y-66900500D01*
X132048620Y-66900500D01*
X132851381Y-66900500D01*
X132851382Y-66900499D01*
X133001205Y-66870698D01*
X133142337Y-66812239D01*
X133269352Y-66727370D01*
X133377370Y-66619352D01*
X133462239Y-66492337D01*
X133520698Y-66351205D01*
X133550500Y-66201380D01*
X133550500Y-66048620D01*
X133520698Y-65898795D01*
X133462239Y-65757663D01*
X133462238Y-65757662D01*
X133462235Y-65757656D01*
X133377370Y-65630648D01*
X133377367Y-65630644D01*
X133269355Y-65522632D01*
X133269351Y-65522629D01*
X133142343Y-65437764D01*
X133142334Y-65437759D01*
X133001205Y-65379302D01*
X133001197Y-65379300D01*
X132851384Y-65349500D01*
X132851380Y-65349500D01*
X132048620Y-65349500D01*
X132048615Y-65349500D01*
X131898802Y-65379300D01*
X131898794Y-65379302D01*
X131757665Y-65437759D01*
X131757656Y-65437764D01*
X131630648Y-65522629D01*
X131630644Y-65522632D01*
X131522632Y-65630644D01*
X131522629Y-65630648D01*
X131437764Y-65757656D01*
X131437759Y-65757665D01*
X131379302Y-65898794D01*
X131379300Y-65898802D01*
X131349500Y-66048615D01*
X129823601Y-66048615D01*
X129814934Y-66005047D01*
X129814933Y-66005046D01*
X129814933Y-66005042D01*
X129781190Y-65923578D01*
X129745168Y-65836612D01*
X129745166Y-65836608D01*
X129643886Y-65685032D01*
X129643880Y-65685024D01*
X129514975Y-65556119D01*
X129514967Y-65556113D01*
X129363391Y-65454833D01*
X129363387Y-65454831D01*
X129194962Y-65385068D01*
X129194952Y-65385065D01*
X129016156Y-65349500D01*
X129016154Y-65349500D01*
X128283846Y-65349500D01*
X128283844Y-65349500D01*
X128105047Y-65385065D01*
X128105037Y-65385068D01*
X127936612Y-65454831D01*
X127936608Y-65454833D01*
X127785032Y-65556113D01*
X127785024Y-65556119D01*
X127656119Y-65685024D01*
X127656113Y-65685032D01*
X127554833Y-65836608D01*
X127554831Y-65836612D01*
X127485068Y-66005037D01*
X127485065Y-66005047D01*
X127449500Y-66183843D01*
X127449500Y-66183846D01*
X127449500Y-66366154D01*
X127449500Y-66366156D01*
X127449499Y-66366156D01*
X92000500Y-66366156D01*
X92000500Y-65318995D01*
X93219499Y-65318995D01*
X93246418Y-65454322D01*
X93246421Y-65454332D01*
X93299221Y-65581804D01*
X93299228Y-65581817D01*
X93375885Y-65696541D01*
X93375888Y-65696545D01*
X93473454Y-65794111D01*
X93473458Y-65794114D01*
X93588182Y-65870771D01*
X93588195Y-65870778D01*
X93655852Y-65898802D01*
X93715672Y-65923580D01*
X93715676Y-65923580D01*
X93715677Y-65923581D01*
X93851004Y-65950500D01*
X93851007Y-65950500D01*
X93988995Y-65950500D01*
X94080041Y-65932389D01*
X94124328Y-65923580D01*
X94251811Y-65870775D01*
X94366542Y-65794114D01*
X94464114Y-65696542D01*
X94540775Y-65581811D01*
X94593580Y-65454328D01*
X94620500Y-65318993D01*
X94620500Y-65181007D01*
X94620500Y-65181004D01*
X94593581Y-65045677D01*
X94593580Y-65045676D01*
X94593580Y-65045672D01*
X94593578Y-65045667D01*
X94540778Y-64918195D01*
X94540771Y-64918182D01*
X94464114Y-64803458D01*
X94464111Y-64803454D01*
X94366545Y-64705888D01*
X94366541Y-64705885D01*
X94251817Y-64629228D01*
X94251804Y-64629221D01*
X94124332Y-64576421D01*
X94124322Y-64576418D01*
X93988995Y-64549500D01*
X93988993Y-64549500D01*
X93851007Y-64549500D01*
X93851005Y-64549500D01*
X93715677Y-64576418D01*
X93715667Y-64576421D01*
X93588195Y-64629221D01*
X93588182Y-64629228D01*
X93473458Y-64705885D01*
X93473454Y-64705888D01*
X93375888Y-64803454D01*
X93375885Y-64803458D01*
X93299228Y-64918182D01*
X93299221Y-64918195D01*
X93246421Y-65045667D01*
X93246418Y-65045677D01*
X93219500Y-65181004D01*
X93219500Y-65181007D01*
X93219500Y-65318993D01*
X93219500Y-65318995D01*
X93219499Y-65318995D01*
X92000500Y-65318995D01*
X92000500Y-63984105D01*
X106249500Y-63984105D01*
X106249500Y-64115888D01*
X106283608Y-64243184D01*
X106316554Y-64300247D01*
X106349500Y-64357311D01*
X106442686Y-64450497D01*
X106556814Y-64516389D01*
X106684108Y-64550497D01*
X106684110Y-64550497D01*
X106815890Y-64550497D01*
X106815892Y-64550497D01*
X106943186Y-64516389D01*
X107057314Y-64450497D01*
X107150500Y-64357311D01*
X107216392Y-64243183D01*
X107250500Y-64115889D01*
X107250500Y-64096541D01*
X107270185Y-64029502D01*
X107286819Y-64008860D01*
X108238867Y-63056812D01*
X109320470Y-61975209D01*
X109366614Y-61895285D01*
X109370503Y-61880768D01*
X109378883Y-61849499D01*
X109384691Y-61827820D01*
X109390500Y-61806141D01*
X109390500Y-60674500D01*
X109410185Y-60607461D01*
X109462989Y-60561706D01*
X109514500Y-60550500D01*
X109909750Y-60550500D01*
X109909751Y-60550499D01*
X109924568Y-60547552D01*
X109968229Y-60538868D01*
X109968229Y-60538867D01*
X109968231Y-60538867D01*
X110034552Y-60494552D01*
X110078867Y-60428231D01*
X110078867Y-60428230D01*
X110078868Y-60428229D01*
X110088502Y-60379792D01*
X110090500Y-60369748D01*
X110090500Y-59393753D01*
X115340000Y-59393753D01*
X115340000Y-59606246D01*
X115373242Y-59816127D01*
X115373242Y-59816130D01*
X115438904Y-60018217D01*
X115535377Y-60207554D01*
X115634240Y-60343626D01*
X115634241Y-60343627D01*
X116246329Y-59731538D01*
X116289901Y-59807007D01*
X116382993Y-59900099D01*
X116458460Y-59943670D01*
X115846371Y-60555758D01*
X115982445Y-60654622D01*
X116171782Y-60751095D01*
X116373870Y-60816757D01*
X116583754Y-60850000D01*
X116796246Y-60850000D01*
X117006127Y-60816757D01*
X117006130Y-60816757D01*
X117208217Y-60751095D01*
X117397546Y-60654626D01*
X117397552Y-60654622D01*
X117533626Y-60555758D01*
X117533627Y-60555758D01*
X116921538Y-59943670D01*
X116997007Y-59900099D01*
X117090099Y-59807007D01*
X117133670Y-59731539D01*
X117745758Y-60343627D01*
X117745758Y-60343626D01*
X117844622Y-60207552D01*
X117844626Y-60207546D01*
X117941095Y-60018217D01*
X117998343Y-59842026D01*
X118037780Y-59784351D01*
X118102139Y-59757152D01*
X118170985Y-59769066D01*
X118222461Y-59816310D01*
X118230835Y-59832891D01*
X118285939Y-59965925D01*
X118299059Y-59997598D01*
X118312968Y-60018414D01*
X118414024Y-60169657D01*
X118560342Y-60315975D01*
X118560345Y-60315977D01*
X118732402Y-60430941D01*
X118923580Y-60510130D01*
X119068052Y-60538867D01*
X119126530Y-60550499D01*
X119126534Y-60550500D01*
X119126535Y-60550500D01*
X119333466Y-60550500D01*
X119333467Y-60550499D01*
X119536420Y-60510130D01*
X119727598Y-60430941D01*
X119899655Y-60315977D01*
X120045977Y-60169655D01*
X120160941Y-59997598D01*
X120240130Y-59806420D01*
X120280500Y-59603465D01*
X120280500Y-59396535D01*
X120280499Y-59396530D01*
X120719500Y-59396530D01*
X120719500Y-59603469D01*
X120759868Y-59806412D01*
X120759870Y-59806420D01*
X120825939Y-59965925D01*
X120839059Y-59997598D01*
X120852968Y-60018414D01*
X120954024Y-60169657D01*
X121100342Y-60315975D01*
X121100345Y-60315977D01*
X121272402Y-60430941D01*
X121463580Y-60510130D01*
X121608052Y-60538867D01*
X121666530Y-60550499D01*
X121666534Y-60550500D01*
X121666535Y-60550500D01*
X121873466Y-60550500D01*
X121873467Y-60550499D01*
X122076420Y-60510130D01*
X122267598Y-60430941D01*
X122439655Y-60315977D01*
X122585977Y-60169655D01*
X122700941Y-59997598D01*
X122780130Y-59806420D01*
X122820500Y-59603465D01*
X122820500Y-59396535D01*
X122780130Y-59193580D01*
X122700941Y-59002402D01*
X122585977Y-58830345D01*
X122585975Y-58830342D01*
X122439657Y-58684024D01*
X122359173Y-58630247D01*
X123259500Y-58630247D01*
X123259500Y-60369752D01*
X123271131Y-60428229D01*
X123271132Y-60428230D01*
X123315447Y-60494552D01*
X123381769Y-60538867D01*
X123381770Y-60538868D01*
X123440247Y-60550499D01*
X123440250Y-60550500D01*
X123440252Y-60550500D01*
X125179750Y-60550500D01*
X125179751Y-60550499D01*
X125194568Y-60547552D01*
X125238229Y-60538868D01*
X125238229Y-60538867D01*
X125238231Y-60538867D01*
X125304552Y-60494552D01*
X125348867Y-60428231D01*
X125348867Y-60428229D01*
X125348868Y-60428229D01*
X125358502Y-60379792D01*
X125360500Y-60369748D01*
X125360500Y-59393713D01*
X130649500Y-59393713D01*
X130649500Y-59606286D01*
X130682735Y-59816127D01*
X130682754Y-59816243D01*
X130741679Y-59997596D01*
X130748444Y-60018414D01*
X130844951Y-60207820D01*
X130969890Y-60379786D01*
X131120213Y-60530109D01*
X131292179Y-60655048D01*
X131292181Y-60655049D01*
X131292184Y-60655051D01*
X131481588Y-60751557D01*
X131683757Y-60817246D01*
X131893713Y-60850500D01*
X131893714Y-60850500D01*
X132106286Y-60850500D01*
X132106287Y-60850500D01*
X132316243Y-60817246D01*
X132518412Y-60751557D01*
X132707816Y-60655051D01*
X132751946Y-60622989D01*
X132879786Y-60530109D01*
X132879788Y-60530106D01*
X132879792Y-60530104D01*
X133030104Y-60379792D01*
X133030106Y-60379788D01*
X133030109Y-60379786D01*
X133155048Y-60207820D01*
X133155047Y-60207820D01*
X133155051Y-60207816D01*
X133251557Y-60018412D01*
X133317246Y-59816243D01*
X133350500Y-59606287D01*
X133350500Y-59393713D01*
X133317246Y-59183757D01*
X133251557Y-58981588D01*
X133155051Y-58792184D01*
X133155049Y-58792181D01*
X133155048Y-58792179D01*
X133030109Y-58620213D01*
X132879786Y-58469890D01*
X132707820Y-58344951D01*
X132518414Y-58248444D01*
X132518413Y-58248443D01*
X132518412Y-58248443D01*
X132316243Y-58182754D01*
X132316241Y-58182753D01*
X132316240Y-58182753D01*
X132154957Y-58157208D01*
X132106287Y-58149500D01*
X131893713Y-58149500D01*
X131845042Y-58157208D01*
X131683760Y-58182753D01*
X131481585Y-58248444D01*
X131292179Y-58344951D01*
X131120213Y-58469890D01*
X130969890Y-58620213D01*
X130844951Y-58792179D01*
X130748444Y-58981585D01*
X130682753Y-59183760D01*
X130649500Y-59393713D01*
X125360500Y-59393713D01*
X125360500Y-58630252D01*
X125360500Y-58630249D01*
X125360499Y-58630247D01*
X125348868Y-58571770D01*
X125348867Y-58571769D01*
X125304552Y-58505447D01*
X125238230Y-58461132D01*
X125238229Y-58461131D01*
X125179752Y-58449500D01*
X125179748Y-58449500D01*
X123440252Y-58449500D01*
X123440247Y-58449500D01*
X123381770Y-58461131D01*
X123381769Y-58461132D01*
X123315447Y-58505447D01*
X123271132Y-58571769D01*
X123271131Y-58571770D01*
X123259500Y-58630247D01*
X122359173Y-58630247D01*
X122271655Y-58571770D01*
X122267598Y-58569059D01*
X122246669Y-58560390D01*
X122076420Y-58489870D01*
X122076412Y-58489868D01*
X121873469Y-58449500D01*
X121873465Y-58449500D01*
X121666535Y-58449500D01*
X121666530Y-58449500D01*
X121463587Y-58489868D01*
X121463579Y-58489870D01*
X121272403Y-58569058D01*
X121100342Y-58684024D01*
X120954024Y-58830342D01*
X120839058Y-59002403D01*
X120759870Y-59193579D01*
X120759868Y-59193587D01*
X120719500Y-59396530D01*
X120280499Y-59396530D01*
X120240130Y-59193580D01*
X120160941Y-59002402D01*
X120045977Y-58830345D01*
X120045975Y-58830342D01*
X119899657Y-58684024D01*
X119731655Y-58571770D01*
X119727598Y-58569059D01*
X119706669Y-58560390D01*
X119536420Y-58489870D01*
X119536412Y-58489868D01*
X119333469Y-58449500D01*
X119333465Y-58449500D01*
X119126535Y-58449500D01*
X119126530Y-58449500D01*
X118923587Y-58489868D01*
X118923579Y-58489870D01*
X118732403Y-58569058D01*
X118560342Y-58684024D01*
X118414024Y-58830342D01*
X118299057Y-59002403D01*
X118230835Y-59167108D01*
X118186994Y-59221511D01*
X118120700Y-59243576D01*
X118053000Y-59226297D01*
X118005390Y-59175159D01*
X117998343Y-59157973D01*
X117941095Y-58981782D01*
X117844622Y-58792445D01*
X117745758Y-58656372D01*
X117745758Y-58656371D01*
X117133670Y-59268460D01*
X117090099Y-59192993D01*
X116997007Y-59099901D01*
X116921539Y-59056329D01*
X117533627Y-58444241D01*
X117533626Y-58444240D01*
X117397554Y-58345377D01*
X117208217Y-58248904D01*
X117006129Y-58183242D01*
X116796246Y-58150000D01*
X116583754Y-58150000D01*
X116373872Y-58183242D01*
X116373869Y-58183242D01*
X116171782Y-58248904D01*
X115982442Y-58345379D01*
X115846372Y-58444239D01*
X115846371Y-58444240D01*
X116458461Y-59056329D01*
X116382993Y-59099901D01*
X116289901Y-59192993D01*
X116246329Y-59268460D01*
X115634240Y-58656371D01*
X115634239Y-58656372D01*
X115535379Y-58792442D01*
X115438904Y-58981782D01*
X115373242Y-59183869D01*
X115373242Y-59183872D01*
X115340000Y-59393753D01*
X110090500Y-59393753D01*
X110090500Y-58630252D01*
X110090500Y-58630249D01*
X110090499Y-58630247D01*
X110078868Y-58571770D01*
X110071264Y-58560390D01*
X110034551Y-58505447D01*
X109968230Y-58461132D01*
X109968229Y-58461131D01*
X109909752Y-58449500D01*
X109909748Y-58449500D01*
X108170252Y-58449500D01*
X108170247Y-58449500D01*
X108111770Y-58461131D01*
X108111769Y-58461132D01*
X108045447Y-58505447D01*
X108001132Y-58571769D01*
X108001131Y-58571770D01*
X107989500Y-58630247D01*
X107989500Y-60369752D01*
X108001131Y-60428229D01*
X108001132Y-60428230D01*
X108045447Y-60494552D01*
X108111769Y-60538867D01*
X108111770Y-60538868D01*
X108170247Y-60550499D01*
X108170250Y-60550500D01*
X108170252Y-60550500D01*
X108565500Y-60550500D01*
X108632539Y-60570185D01*
X108678294Y-60622989D01*
X108689500Y-60674500D01*
X108689500Y-61563453D01*
X108669815Y-61630492D01*
X108653181Y-61651134D01*
X106791137Y-63513178D01*
X106729814Y-63546663D01*
X106703456Y-63549497D01*
X106684108Y-63549497D01*
X106556812Y-63583605D01*
X106442686Y-63649497D01*
X106442683Y-63649499D01*
X106349502Y-63742680D01*
X106349500Y-63742683D01*
X106283608Y-63856809D01*
X106249500Y-63984105D01*
X92000500Y-63984105D01*
X92000500Y-63184108D01*
X97749500Y-63184108D01*
X97749500Y-63315891D01*
X97783608Y-63443187D01*
X97816554Y-63500250D01*
X97849500Y-63557314D01*
X97942686Y-63650500D01*
X98056814Y-63716392D01*
X98184108Y-63750500D01*
X98184110Y-63750500D01*
X98315890Y-63750500D01*
X98315892Y-63750500D01*
X98443186Y-63716392D01*
X98557314Y-63650500D01*
X98570995Y-63636819D01*
X98597922Y-63622115D01*
X98623741Y-63605523D01*
X98629941Y-63604631D01*
X98632318Y-63603334D01*
X98658676Y-63600500D01*
X98841324Y-63600500D01*
X98908363Y-63620185D01*
X98929005Y-63636819D01*
X98942686Y-63650500D01*
X99056814Y-63716392D01*
X99184108Y-63750500D01*
X99184110Y-63750500D01*
X99315890Y-63750500D01*
X99315892Y-63750500D01*
X99443186Y-63716392D01*
X99557314Y-63650500D01*
X99650500Y-63557314D01*
X99716392Y-63443186D01*
X99750500Y-63315892D01*
X99750500Y-63184108D01*
X99716392Y-63056814D01*
X99650500Y-62942686D01*
X99557314Y-62849500D01*
X99500250Y-62816554D01*
X99443187Y-62783608D01*
X99379539Y-62766554D01*
X99315892Y-62749500D01*
X99184108Y-62749500D01*
X99056812Y-62783608D01*
X98942686Y-62849500D01*
X98942683Y-62849502D01*
X98929005Y-62863181D01*
X98902077Y-62877884D01*
X98876259Y-62894477D01*
X98870058Y-62895368D01*
X98867682Y-62896666D01*
X98841324Y-62899500D01*
X98658676Y-62899500D01*
X98591637Y-62879815D01*
X98570995Y-62863181D01*
X98557316Y-62849502D01*
X98557314Y-62849500D01*
X98500250Y-62816554D01*
X98443187Y-62783608D01*
X98379539Y-62766554D01*
X98315892Y-62749500D01*
X98184108Y-62749500D01*
X98056812Y-62783608D01*
X97942686Y-62849500D01*
X97942683Y-62849502D01*
X97849502Y-62942683D01*
X97849500Y-62942686D01*
X97783608Y-63056812D01*
X97749500Y-63184108D01*
X92000500Y-63184108D01*
X92000500Y-59503545D01*
X92000703Y-59496455D01*
X92006239Y-59399787D01*
X92006587Y-59393713D01*
X93149500Y-59393713D01*
X93149500Y-59606286D01*
X93182735Y-59816127D01*
X93182754Y-59816243D01*
X93241679Y-59997596D01*
X93248444Y-60018414D01*
X93344951Y-60207820D01*
X93469890Y-60379786D01*
X93620213Y-60530109D01*
X93792179Y-60655048D01*
X93792181Y-60655049D01*
X93792184Y-60655051D01*
X93981588Y-60751557D01*
X94183757Y-60817246D01*
X94393713Y-60850500D01*
X94393714Y-60850500D01*
X94606286Y-60850500D01*
X94606287Y-60850500D01*
X94816243Y-60817246D01*
X95018412Y-60751557D01*
X95207816Y-60655051D01*
X95251946Y-60622989D01*
X95379786Y-60530109D01*
X95379788Y-60530106D01*
X95379792Y-60530104D01*
X95530104Y-60379792D01*
X95530106Y-60379788D01*
X95530109Y-60379786D01*
X95655048Y-60207820D01*
X95655047Y-60207820D01*
X95655051Y-60207816D01*
X95751557Y-60018412D01*
X95817246Y-59816243D01*
X95850500Y-59606287D01*
X95850500Y-59393753D01*
X100070000Y-59393753D01*
X100070000Y-59606246D01*
X100103242Y-59816127D01*
X100103242Y-59816130D01*
X100168904Y-60018217D01*
X100265377Y-60207554D01*
X100364240Y-60343626D01*
X100364241Y-60343627D01*
X100976329Y-59731538D01*
X101019901Y-59807007D01*
X101112993Y-59900099D01*
X101188460Y-59943670D01*
X100576371Y-60555758D01*
X100712445Y-60654622D01*
X100901782Y-60751095D01*
X101103870Y-60816757D01*
X101313754Y-60850000D01*
X101526246Y-60850000D01*
X101736127Y-60816757D01*
X101736130Y-60816757D01*
X101938217Y-60751095D01*
X102127546Y-60654626D01*
X102127552Y-60654622D01*
X102263626Y-60555758D01*
X102263627Y-60555758D01*
X101651538Y-59943670D01*
X101727007Y-59900099D01*
X101820099Y-59807007D01*
X101863670Y-59731539D01*
X102475758Y-60343627D01*
X102475758Y-60343626D01*
X102574622Y-60207552D01*
X102574626Y-60207546D01*
X102671095Y-60018217D01*
X102728343Y-59842026D01*
X102767780Y-59784351D01*
X102832139Y-59757152D01*
X102900985Y-59769066D01*
X102952461Y-59816310D01*
X102960835Y-59832891D01*
X103015939Y-59965925D01*
X103029059Y-59997598D01*
X103042968Y-60018414D01*
X103144024Y-60169657D01*
X103290342Y-60315975D01*
X103290345Y-60315977D01*
X103462402Y-60430941D01*
X103653580Y-60510130D01*
X103798052Y-60538867D01*
X103856530Y-60550499D01*
X103856534Y-60550500D01*
X103856535Y-60550500D01*
X104063466Y-60550500D01*
X104063467Y-60550499D01*
X104266420Y-60510130D01*
X104457598Y-60430941D01*
X104629655Y-60315977D01*
X104775977Y-60169655D01*
X104890941Y-59997598D01*
X104970130Y-59806420D01*
X105010500Y-59603465D01*
X105010500Y-59396535D01*
X105010499Y-59396530D01*
X105449500Y-59396530D01*
X105449500Y-59603469D01*
X105489868Y-59806412D01*
X105489870Y-59806420D01*
X105555939Y-59965925D01*
X105569059Y-59997598D01*
X105582968Y-60018414D01*
X105684024Y-60169657D01*
X105830342Y-60315975D01*
X105830345Y-60315977D01*
X106002402Y-60430941D01*
X106193580Y-60510130D01*
X106338052Y-60538867D01*
X106396530Y-60550499D01*
X106396534Y-60550500D01*
X106396535Y-60550500D01*
X106603466Y-60550500D01*
X106603467Y-60550499D01*
X106806420Y-60510130D01*
X106997598Y-60430941D01*
X107169655Y-60315977D01*
X107315977Y-60169655D01*
X107430941Y-59997598D01*
X107510130Y-59806420D01*
X107550500Y-59603465D01*
X107550500Y-59396535D01*
X107510130Y-59193580D01*
X107430941Y-59002402D01*
X107315977Y-58830345D01*
X107315975Y-58830342D01*
X107169657Y-58684024D01*
X107001655Y-58571770D01*
X106997598Y-58569059D01*
X106976669Y-58560390D01*
X106806420Y-58489870D01*
X106806412Y-58489868D01*
X106603469Y-58449500D01*
X106603465Y-58449500D01*
X106396535Y-58449500D01*
X106396530Y-58449500D01*
X106193587Y-58489868D01*
X106193579Y-58489870D01*
X106002403Y-58569058D01*
X105830342Y-58684024D01*
X105684024Y-58830342D01*
X105569058Y-59002403D01*
X105489870Y-59193579D01*
X105489868Y-59193587D01*
X105449500Y-59396530D01*
X105010499Y-59396530D01*
X104970130Y-59193580D01*
X104890941Y-59002402D01*
X104775977Y-58830345D01*
X104775975Y-58830342D01*
X104629657Y-58684024D01*
X104461655Y-58571770D01*
X104457598Y-58569059D01*
X104436669Y-58560390D01*
X104266420Y-58489870D01*
X104266412Y-58489868D01*
X104063469Y-58449500D01*
X104063465Y-58449500D01*
X103856535Y-58449500D01*
X103856530Y-58449500D01*
X103653587Y-58489868D01*
X103653579Y-58489870D01*
X103462403Y-58569058D01*
X103290342Y-58684024D01*
X103144024Y-58830342D01*
X103029057Y-59002403D01*
X102960835Y-59167108D01*
X102916994Y-59221511D01*
X102850700Y-59243576D01*
X102783000Y-59226297D01*
X102735390Y-59175159D01*
X102728343Y-59157973D01*
X102671095Y-58981782D01*
X102574622Y-58792445D01*
X102475758Y-58656372D01*
X102475758Y-58656371D01*
X101863670Y-59268460D01*
X101820099Y-59192993D01*
X101727007Y-59099901D01*
X101651539Y-59056329D01*
X102263627Y-58444241D01*
X102263626Y-58444240D01*
X102127554Y-58345377D01*
X101938217Y-58248904D01*
X101736129Y-58183242D01*
X101526246Y-58150000D01*
X101313754Y-58150000D01*
X101103872Y-58183242D01*
X101103869Y-58183242D01*
X100901782Y-58248904D01*
X100712442Y-58345379D01*
X100576372Y-58444239D01*
X100576371Y-58444240D01*
X101188461Y-59056329D01*
X101112993Y-59099901D01*
X101019901Y-59192993D01*
X100976329Y-59268460D01*
X100364240Y-58656371D01*
X100364239Y-58656372D01*
X100265379Y-58792442D01*
X100168904Y-58981782D01*
X100103242Y-59183869D01*
X100103242Y-59183872D01*
X100070000Y-59393753D01*
X95850500Y-59393753D01*
X95850500Y-59393713D01*
X95817246Y-59183757D01*
X95751557Y-58981588D01*
X95655051Y-58792184D01*
X95655049Y-58792181D01*
X95655048Y-58792179D01*
X95530109Y-58620213D01*
X95379786Y-58469890D01*
X95207820Y-58344951D01*
X95018414Y-58248444D01*
X95018413Y-58248443D01*
X95018412Y-58248443D01*
X94816243Y-58182754D01*
X94816241Y-58182753D01*
X94816240Y-58182753D01*
X94654957Y-58157208D01*
X94606287Y-58149500D01*
X94393713Y-58149500D01*
X94345042Y-58157208D01*
X94183760Y-58182753D01*
X93981585Y-58248444D01*
X93792179Y-58344951D01*
X93620213Y-58469890D01*
X93469890Y-58620213D01*
X93344951Y-58792179D01*
X93248444Y-58981585D01*
X93182753Y-59183760D01*
X93149500Y-59393713D01*
X92006587Y-59393713D01*
X92016437Y-59221725D01*
X92018056Y-59207640D01*
X92023686Y-59175159D01*
X92064446Y-58939996D01*
X92067655Y-58926218D01*
X92144309Y-58665584D01*
X92149072Y-58652261D01*
X92254968Y-58402112D01*
X92261229Y-58389403D01*
X92310787Y-58301810D01*
X92394991Y-58152979D01*
X92402649Y-58141083D01*
X92562545Y-57921458D01*
X92571524Y-57910503D01*
X92755425Y-57710591D01*
X92765595Y-57700732D01*
X92971126Y-57523115D01*
X92982348Y-57514487D01*
X93206826Y-57361489D01*
X93218952Y-57354204D01*
X93353244Y-57283633D01*
X93410926Y-57269401D01*
X131704237Y-57269401D01*
X131725659Y-57271265D01*
X131737024Y-57273259D01*
X131737024Y-57273258D01*
X131737025Y-57273259D01*
X131775216Y-57269883D01*
X131780180Y-57269544D01*
X131783154Y-57269401D01*
X131824483Y-57269401D01*
X131833517Y-57266979D01*
X131846803Y-57266341D01*
X131847567Y-57266526D01*
X131849534Y-57266240D01*
X132073559Y-57260427D01*
X132088956Y-57260985D01*
G37*
%TD.AperFunction*%
%TD*%
M02*
